<svg width="68" height="97" viewBox="0 0 68 97" fill="none" xmlns="http://www.w3.org/2000/svg">
<g clip-path="url(#clip0_1861_9534)">
<path d="M55.5423 39.0327C55.5035 39.027 55.4656 39.0252 55.4268 39.0276C55.3882 39.0293 55.3501 39.0351 55.3128 39.0449C55.2756 39.0546 55.2394 39.0675 55.2041 39.0843C55.1693 39.1008 55.1363 39.1207 55.1052 39.144C55.0746 39.167 55.0463 39.1932 55.02 39.2219C54.9943 39.2504 54.9718 39.2815 54.9519 39.3149C54.9325 39.3481 54.9158 39.3829 54.9031 39.4193C54.89 39.4559 54.881 39.4934 54.8755 39.5315C54.8701 39.5696 54.868 39.6082 54.8702 39.6465C54.8726 39.6853 54.8782 39.723 54.8874 39.7605C54.8974 39.7983 54.9103 39.8344 54.9269 39.8692C54.9434 39.904 54.9633 39.937 54.9866 39.9681C55.0096 39.9987 55.0357 40.027 55.0645 40.0533C55.0935 40.0788 55.1241 40.1015 55.1575 40.1214C55.1907 40.1409 55.2255 40.1575 55.2618 40.1702C55.2982 40.1829 55.336 40.1923 55.374 40.1978C57.3556 40.4732 59.3126 40.8673 61.2458 41.3796C63.1794 41.8924 65.0748 42.52 66.9315 43.2622C68.7889 44.0045 70.5943 44.8568 72.3483 45.8179C74.1019 46.7793 75.7911 47.8429 77.4155 49.0089C83.5269 53.4197 87.526 58.6206 88.3949 63.2806C89.1903 67.5566 87.2605 71.1014 82.8185 73.5311C77.8061 76.2727 72.2616 77.3441 67.2079 76.546L66.8125 76.4804C67.1021 75.1982 67.2692 73.9004 67.3133 72.5872C67.4286 68.6799 66.3114 65.6661 64.3255 64.5285C63.3514 63.9695 61.7048 63.6092 59.4075 65.0481C56.4459 66.901 55.5977 69.5761 57.146 72.2007C58.5191 74.5484 61.5975 76.457 65.3826 77.3752C63.9903 82.3136 60.6847 87.3707 55.1945 90.108C51.3748 92.0125 48.0201 92.1355 45.2178 90.4673C38.7014 86.5976 35.9413 73.5073 35.5485 62.5372C35.324 56.4443 37.0558 51.1988 40.6958 46.949C43.4171 43.768 46.2448 42.3711 46.2789 42.3556C46.3139 42.3383 46.3469 42.3184 46.3775 42.2954C46.4084 42.2716 46.4367 42.2455 46.4624 42.217C46.4884 42.1878 46.5109 42.1567 46.5303 42.1235C46.5502 42.0901 46.5662 42.055 46.5788 42.0187C46.592 41.982 46.6009 41.9446 46.6062 41.906C46.6116 41.8679 46.6132 41.8295 46.6108 41.7907C46.6086 41.7525 46.6028 41.7143 46.5928 41.6766C46.583 41.6393 46.5701 41.6031 46.5529 41.5681C46.5363 41.5333 46.516 41.5006 46.4929 41.47C46.4697 41.4388 46.4435 41.4105 46.4145 41.385C46.3853 41.3591 46.3542 41.3366 46.321 41.3172C46.2876 41.2973 46.2526 41.2813 46.2162 41.2687C46.1796 41.2555 46.1421 41.2466 46.104 41.2411C46.0655 41.2358 46.027 41.2343 45.9883 41.2367C45.95 41.2389 45.9118 41.2447 45.8741 41.2547C45.8368 41.2644 45.8009 41.2778 45.7656 41.2946C45.6461 41.36 42.7161 42.791 39.8322 46.1498C37.1757 49.234 34.0718 54.5911 34.364 62.59C34.5656 68.0628 35.8979 86.3151 44.6103 91.4868C47.7824 93.3604 51.5067 93.2545 55.7074 91.1636C55.9287 91.0426 56.1525 90.9364 56.3714 90.8167C61.8071 87.8435 65.1128 82.6629 66.5198 77.6195C66.6845 77.6503 66.8511 77.6801 67.0172 77.7045C72.3342 78.5521 78.1391 77.4266 83.3791 74.5605C89.6104 71.1522 90.1739 66.4254 89.5468 63.0608C88.6254 58.1077 84.4539 52.6364 78.1025 48.0513C76.4392 46.8576 74.7107 45.7691 72.9155 44.7854C71.1203 43.8017 69.2721 42.9297 67.3713 42.1697C65.4704 41.4098 63.5306 40.7676 61.5524 40.2429C59.5734 39.718 57.5701 39.3148 55.5423 39.0327ZM65.6634 76.2451C64.1946 75.9028 62.8003 75.3669 61.48 74.6377C59.9572 73.7775 58.8095 72.734 58.1577 71.626C56.9438 69.5533 57.6121 67.5754 60.0358 66.0593C60.1692 65.9757 60.2989 65.8991 60.4257 65.8297C61.7111 65.1267 62.8247 65.0381 63.7459 65.5646C65.3155 66.4713 66.2441 69.1505 66.1422 72.5706C66.0994 73.8105 65.94 75.0352 65.6634 76.2451Z" fill="#FFCBD1"/>
<mask id="mask0_1861_9534" style="mask-type:luminance" maskUnits="userSpaceOnUse" x="2" y="37" width="30" height="31">
<path d="M2.73181 46.5521L20.1798 37.0087L31.3868 57.4981L13.9388 67.0415L2.73181 46.5521Z" fill="white"/>
</mask>
<g mask="url(#mask0_1861_9534)">
<path d="M27.6076 55.0903C28.0257 52.8759 27.589 50.566 26.3071 48.2222C24.5645 45.0362 20.1964 42.1349 16.1454 41.4717C13.6108 41.0578 11.5063 41.5437 10.0608 42.8761C5.86468 46.7516 4.80066 50.3033 10.1138 60.0172C11.6059 62.7452 13.5064 64.257 15.7876 64.5007C17.4996 64.6862 19.166 64.1311 20.6018 63.3458C22.2091 62.4341 23.6356 61.2962 24.8819 59.9317C25.2315 59.6146 25.553 59.2715 25.8476 58.9018C26.1419 58.5329 26.4044 58.1425 26.6362 57.7313C26.8676 57.3197 27.0651 56.8928 27.2281 56.4498C27.391 56.0068 27.5172 55.5538 27.6076 55.0903ZM24.0684 59.0732C24.0501 59.0832 24.0293 59.0945 24.0205 59.1231C23.9792 59.1702 19.9083 63.7658 15.9165 63.3277C14.047 63.1244 12.4427 61.8208 11.147 59.4521C5.74476 49.5752 7.52555 46.8197 10.8588 43.7406C11.116 43.5054 11.398 43.3041 11.7039 43.1362C13.0694 42.3894 14.7138 42.432 15.9539 42.6332C19.6807 43.2432 23.6881 45.8882 25.2739 48.7874C28.3971 54.4975 25.1366 58.0967 24.0684 59.0732Z" fill="#FFCBD1"/>
</g>
<mask id="mask1_1861_9534" style="mask-type:luminance" maskUnits="userSpaceOnUse" x="59" y="5" width="30" height="32">
<path d="M59.4305 15.5399L76.9379 5.96398L88.1448 26.4534L70.6375 36.0293L59.4305 15.5399Z" fill="white"/>
</mask>
<g mask="url(#mask1_1861_9534)">
<path d="M69.8651 10.1654C67.9655 10.6675 66.421 12.1726 65.4022 14.5301C63.7753 18.2988 63.862 23.5419 65.6046 26.728C66.8865 29.0717 68.596 30.6855 70.6861 31.528C71.1241 31.7012 71.5734 31.8388 72.034 31.9401C72.4942 32.0417 72.9597 32.1059 73.4307 32.1321C73.9011 32.1585 74.3707 32.1478 74.8399 32.0986C75.3088 32.05 75.7709 31.9639 76.2258 31.8404C78.0475 31.5268 79.7756 30.9392 81.4111 30.0778C82.845 29.2936 84.2154 28.187 84.981 26.6469C86.0056 24.5944 85.7579 22.1786 84.2658 19.4506C78.9561 9.74305 75.3919 8.72277 69.8651 10.1654ZM83.9294 26.1272C82.1401 29.7273 76.0768 30.6747 76.0169 30.6831L75.9471 30.6974C74.5453 31.0802 69.7611 31.8729 66.6379 26.1628C65.0566 23.2719 64.9848 18.4635 66.4811 14.9967C66.9806 13.844 67.8323 12.4361 69.1977 11.6892C69.5042 11.5222 69.8258 11.3933 70.1626 11.3037C74.5529 10.1583 77.8342 10.145 83.2364 20.0218C84.5321 22.3906 84.7643 24.4447 83.9294 26.1272Z" fill="#FFCBD1"/>
</g>
<path d="M26.3838 40.486C28.0945 40.6691 29.7609 40.1141 31.1967 39.3287C32.8037 38.4166 34.2302 37.2786 35.4768 35.9147C35.8256 35.5974 36.147 35.255 36.4408 34.8863C36.7351 34.5173 36.9974 34.1277 37.2287 33.7168C37.4602 33.3064 37.6577 32.8796 37.8204 32.4373C37.9837 31.9947 38.1101 31.5422 38.2003 31.0795C38.6197 28.8675 38.182 26.5556 36.9011 24.2138C34.8499 20.4637 28.9424 16.3867 24.509 15.6622C22.413 15.3196 20.6833 15.7051 19.515 16.7838C15.171 20.791 15.5283 26.5382 20.7059 36.0042C22.1969 38.7303 24.1067 40.2395 26.3838 40.486ZM20.313 17.6484C20.5073 17.4688 20.7208 17.3163 20.954 17.1907C21.8132 16.7207 22.9405 16.5978 24.3164 16.8217C28.7681 17.5501 34.1814 21.6956 35.8668 24.7771C38.9887 30.4847 35.7335 34.0924 34.6615 35.0621L34.6126 35.1101C34.5708 35.1574 30.5014 39.7548 26.5095 39.3174C24.6397 39.1136 23.0343 37.8081 21.74 35.4417C18.304 29.1598 15.4479 22.1366 20.313 17.6484Z" fill="#FFCBD1"/>
<path d="M50.3484 27.7755C52.1693 27.4617 53.897 26.8744 55.5315 26.0136C56.9678 25.228 58.3382 24.1214 59.1025 22.5846C60.1274 20.5326 59.8783 18.1144 58.3875 15.3888C53.2099 5.92274 48.5621 2.5192 42.846 4.01773C41.3072 4.41904 40.0474 5.6637 39.2073 7.61718C37.4343 11.7371 37.6743 18.9189 39.7231 22.6648C42.5276 27.7818 47.0422 28.6606 50.3484 27.7755ZM40.2927 8.08083C40.8469 6.80119 41.5591 5.92054 42.4188 5.45033C42.6506 5.32226 42.8947 5.2257 43.1513 5.15992C46.7437 4.21978 51.2377 4.76087 57.3621 15.9578C58.6564 18.3242 58.8901 20.38 58.0531 22.0643C56.263 25.6617 50.2011 26.6083 50.1392 26.6177L50.0724 26.633C48.6714 27.0159 43.8834 27.8076 40.7615 22.0999C39.0751 19.0166 38.505 12.2219 40.2927 8.08083Z" fill="#FFCBD1"/>
</g>
<defs>
<clipPath id="clip0_1861_9534">
<rect width="68" height="97" fill="white"/>
</clipPath>
</defs>
</svg>
