<svg width="172" height="124" viewBox="0 0 172 124" fill="none" xmlns="http://www.w3.org/2000/svg">
<g clip-path="url(#clip0_1861_9532)">
<path d="M154.745 63.044C154.507 62.8663 154.257 62.6915 154.003 62.5253C143.185 56.8212 130.18 62.8574 122.581 71.158C115.265 78.3657 110.851 91.4702 118.334 100.105C119.434 101.34 120.857 102.258 122.377 102.885C135.813 107.532 150.311 98.5848 156.814 86.9368C161.563 79.8373 162.111 68.5642 154.745 63.044ZM113.917 32.3166C107.867 27.892 98.616 30.3428 93.3277 35.2681C82.7317 44.934 77.1336 62.767 86.0963 75.3C87.0086 76.3801 88.1218 77.2762 89.3586 77.956C98.2685 82.7209 108.413 76.4594 113.573 69.0719C120.575 59.4793 124.048 44.829 116.29 34.6466C115.577 33.7212 114.781 32.9497 113.918 32.3178L113.917 32.3166ZM155.83 115.178C145.083 107.886 130.17 112.694 121.816 121.473C115.156 127.314 111.747 139.359 119.201 145.971C130.29 154.287 146.794 148.343 154.859 138.506C160.681 132.377 162.972 121.26 155.83 115.178ZM64.157 48.2523C59.8143 44.8516 53.5059 44.1555 48.6658 47.4903C35.7299 56.4166 31.8257 77.3251 42.4963 89.5043C47.0599 94.4439 54.7737 93.9703 59.8034 90.1292C70.5366 81.894 74.1224 65.5012 68.1439 53.4145C67.2541 51.3357 65.8548 49.585 64.1554 48.2543L64.157 48.2523ZM93.8524 104.958C85.27 98.383 73.2276 96.0245 62.7096 98.2135C50.9247 101.13 39.2744 106.112 30.0437 114.134C22.4489 119.177 21.6812 131.117 28.9713 136.802C37.5975 143.828 49.8194 143.618 58.9294 149.913C67.236 154.504 70.9245 163.486 75.6661 171.157C79.49 177.966 88.0717 183.087 95.6811 179.212C102.76 174.74 104.507 165.509 105.977 157.832C107.202 144.477 108.374 130.352 103.367 117.573C101.408 112.388 98.0443 108.17 93.8524 104.958Z" fill="#FFEE97"/>
<path d="M52.937 5.23224C52.937 5.23224 52.9427 5.23086 52.9413 5.22519C53.4912 4.79053 54.204 4.62878 54.8764 4.81976C55.8347 5.09725 56.7776 5.36065 57.6455 5.78653C60.1849 7.01996 61.8003 9.32658 63.7047 11.6589C63.914 10.814 64.0892 10.224 64.2133 9.62237C64.7671 6.8833 65.9082 4.37982 67.291 1.97999C67.2996 1.96588 67.3081 1.95161 67.311 1.93888C68.6077 -0.271523 71.9943 0.340247 72.4073 2.87386C72.4483 3.14046 72.4834 3.40864 72.5017 3.68077C72.8863 8.5668 72.6728 13.418 71.6032 18.2136C70.8948 21.4053 70.1226 24.5826 69.4342 27.7817C69.3085 28.3775 69.2653 28.9896 69.2231 29.6313C69.1808 30.273 68.5514 30.7273 67.9386 30.5338C67.4121 30.3734 66.9149 30.0375 66.4614 29.5347C64.8387 27.7411 62.905 26.2759 61.3937 24.3469C59.5404 21.9779 57.3282 19.8891 55.4792 17.513C54.0751 15.7023 52.7666 13.7418 51.832 11.6602C50.3573 8.35096 50.4608 7.17101 52.937 5.23224ZM71.5651 6.38093L71.2721 14.0663C71.9711 11.5023 72.2274 8.94992 71.5651 6.38093ZM67.8826 11.3442C67.8951 10.1864 67.9121 9.02152 67.9248 7.86369L67.5206 7.8599L67.5026 11.3405L67.8826 11.3442ZM64.6778 13.0094C65.1184 10.9654 65.5589 8.92147 65.9951 6.88458C64.8635 8.78437 64.3209 10.8049 64.6778 13.0094ZM66.347 12.7469C65.8737 14.8048 65.6387 16.8527 66.0516 18.9414C66.631 16.8996 66.3501 14.8091 66.347 12.7469ZM68.3073 28.417C68.9057 27.6878 69.1745 26.8404 68.7969 25.5132L67.3546 28.3847C67.6607 28.4062 68.1829 28.5737 68.3073 28.417ZM64.4238 24.36L64.5544 24.3282L63.8514 21.4443L63.7208 21.4762L64.4238 24.36ZM61.4132 21.0944L61.9001 20.9937C61.2325 19.0695 60.5593 17.1467 59.8916 15.2226L59.6998 15.2754C60.2695 17.2173 60.8449 19.158 61.4132 21.0944ZM58.3037 17.053L58.5225 16.9877L58.1342 15.7652L57.998 15.7744L58.3094 17.0517L58.3037 17.053ZM57.5371 12.7473L57.8528 12.5861L56.4843 9.07076L56.1319 9.20473C56.5999 10.3838 57.0677 11.5627 57.5371 12.7473ZM55.8113 14.6536C55.6142 12.7591 54.6969 11.0942 53.9457 9.3948C53.918 11.3802 54.7091 13.0698 55.8113 14.6536ZM52.7734 9.54819L53.1129 7.80561C53.2138 7.30581 53.7458 7.01989 54.2154 7.21805L54.644 7.39634C54.4183 6.96413 54.3275 6.49319 54.1221 6.44092C53.2091 6.20047 52.3494 6.96936 52.403 7.95464C52.4284 8.45352 52.6253 8.94082 52.7734 9.54819Z" fill="#FFCBD1"/>
</g>
<defs>
<clipPath id="clip0_1861_9532">
<rect width="172" height="124" fill="white"/>
</clipPath>
</defs>
</svg>
