<svg width="11" height="14" viewBox="0 0 11 14" fill="none" xmlns="http://www.w3.org/2000/svg">
<g clip-path="url(#clip0_1867_7939)">
<path d="M0.875 -2.86529e-09C0.391016 -1.28043e-09 1.28043e-09 0.391016 2.86529e-09 0.875C4.45016e-09 1.35898 0.391016 1.75 0.875 1.75L0.875 2.05078C0.875 3.21016 1.33711 4.32305 2.15742 5.14336L4.01133 7L2.15742 8.85664C1.33711 9.67695 0.875 10.7898 0.875 11.9492L0.875 12.25C0.391016 12.25 4.13945e-08 12.641 4.29794e-08 13.125C4.45643e-08 13.609 0.391016 14 0.875 14L1.75 14L8.75 14L9.625 14C10.109 14 10.5 13.609 10.5 13.125C10.5 12.641 10.109 12.25 9.625 12.25L9.625 11.9492C9.625 10.7898 9.16289 9.67695 8.34258 8.85664L6.48867 7L8.34531 5.14336C9.16563 4.32305 9.62773 3.21016 9.62773 2.05078L9.62773 1.75C10.1117 1.75 10.5027 1.35898 10.5027 0.875C10.5027 0.391016 10.1117 -3.31121e-08 9.62773 -3.15272e-08L8.75 -2.86529e-08L1.75 -5.73059e-09L0.875 -2.86529e-09ZM2.625 2.05078L2.625 1.75L7.875 1.75L7.875 2.05078C7.875 2.57031 7.72188 3.07344 7.4375 3.5L3.0625 3.5C2.78086 3.07344 2.625 2.57031 2.625 2.05078ZM3.0625 10.5C3.1582 10.3551 3.27031 10.2184 3.39336 10.0926L5.25 8.23867L7.10664 10.0953C7.23242 10.2211 7.3418 10.3578 7.4375 10.5027L3.0625 10.5027L3.0625 10.5Z" fill="white"/>
</g>
<defs>
<clipPath id="clip0_1867_7939">
<rect width="10.5" height="14" fill="white"/>
</clipPath>
</defs>
</svg>
