<svg width="216" height="220" viewBox="0 0 216 220" fill="none" xmlns="http://www.w3.org/2000/svg">
<g clip-path="url(#clip0_1863_9550)">
<path d="M178.646 84.7847C178.552 84.7825 178.463 84.7893 178.373 84.8064C178.283 84.8216 178.195 84.8467 178.112 84.8808C178.028 84.915 177.948 84.9563 177.872 85.0068C177.796 85.0564 177.727 85.1136 177.663 85.1783C177.599 85.2422 177.543 85.3128 177.492 85.3892C177.443 85.4648 177.402 85.5455 177.368 85.6312C177.335 85.7161 177.31 85.8041 177.294 85.8947C177.277 85.986 177.27 86.0781 177.272 86.1706C177.274 86.2631 177.284 86.3561 177.303 86.4469C177.324 86.5388 177.351 86.6271 177.387 86.714C177.425 86.8012 177.469 86.8838 177.522 86.9621C177.574 87.0404 177.633 87.1132 177.7 87.1807C177.765 87.2471 177.837 87.3071 177.915 87.3613C177.993 87.4137 178.073 87.4591 178.159 87.4968C178.245 87.5336 178.333 87.5632 178.423 87.5828C178.513 87.6025 178.605 87.6139 178.697 87.6159C183.452 87.6943 188.195 88.0633 192.928 88.7215C197.661 89.3808 202.349 90.3252 206.99 91.5546C211.633 92.7843 216.195 94.2916 220.679 96.0738C225.162 97.8568 229.533 99.9027 233.791 102.212C249.82 110.958 261.195 122.208 265.018 133.081C268.521 143.059 265.35 152.088 255.856 159.188C245.144 167.2 232.544 171.379 220.379 170.95L219.426 170.909C219.615 167.763 219.51 164.615 219.111 161.467C217.886 152.103 214.111 145.233 209.015 143.097C206.516 142.047 202.514 141.668 197.674 145.775C191.434 151.066 190.467 157.701 195.105 163.516C199.226 168.721 207.18 172.378 216.414 173.464C215.037 185.663 209.216 198.705 197.381 206.846C189.146 212.511 181.321 213.785 174.107 210.621C157.335 203.285 145.847 172.835 140.726 146.755C137.867 132.271 139.923 119.239 146.838 108.028C152.006 99.6364 158.106 95.4742 158.18 95.4272C158.256 95.3757 158.326 95.3185 158.389 95.2546C158.452 95.1888 158.509 95.1181 158.558 95.0426C158.608 94.9652 158.649 94.8844 158.682 94.7995C158.715 94.7138 158.739 94.6255 158.755 94.5349C158.772 94.4436 158.779 94.3515 158.776 94.2579C158.775 94.1654 158.763 94.0732 158.743 93.9813C158.723 93.8906 158.695 93.8012 158.657 93.7139C158.62 93.6278 158.576 93.5452 158.522 93.4666C158.47 93.3883 158.409 93.3162 158.344 93.2498C158.277 93.1823 158.205 93.1224 158.127 93.07C158.049 93.0165 157.967 92.9719 157.882 92.9352C157.796 92.8975 157.707 92.8697 157.617 92.85C157.526 92.8293 157.435 92.8189 157.343 92.8169C157.251 92.8158 157.16 92.8233 157.07 92.8404C156.981 92.8567 156.894 92.8818 156.809 92.9167C156.725 92.9509 156.646 92.9933 156.57 93.0437C156.314 93.2349 149.987 97.5082 144.505 106.372C139.452 114.513 134.219 128.212 137.967 147.227C140.535 160.236 150.648 203.43 173.072 213.233C181.233 216.779 189.931 215.438 198.988 209.217C199.461 208.863 199.946 208.544 200.414 208.195C212.031 199.506 217.805 186.169 219.176 173.715C219.574 173.741 219.976 173.763 220.375 173.772C233.176 174.242 246.367 169.858 257.566 161.482C270.883 151.522 270.396 140.071 267.637 132.22C263.579 120.662 251.696 108.817 235.037 99.7247C230.677 97.3606 226.204 95.2668 221.615 93.4427C217.026 91.6185 212.355 90.0764 207.604 88.8175C202.852 87.5585 198.055 86.5922 193.212 85.9176C188.367 85.2428 183.512 84.8655 178.646 84.7847ZM216.64 170.683C213.062 170.296 209.585 169.424 206.208 168.068C202.305 166.459 199.213 164.303 197.259 161.848C193.617 157.253 194.428 152.335 199.535 148.007C199.816 147.768 200.091 147.547 200.362 147.344C203.11 145.29 205.689 144.753 208.052 145.741C212.082 147.447 215.287 153.573 216.357 161.769C216.731 164.742 216.826 167.714 216.64 170.683Z" fill="#FFE064" fill-opacity="0.7"/>
<mask id="mask0_1863_9550" style="mask-type:luminance" maskUnits="userSpaceOnUse" x="57" y="90" width="73" height="74">
<path d="M57.6005 118.177L94.8901 90.2888L129.031 135.938L91.7414 163.827L57.6005 118.177Z" fill="white"/>
</mask>
<g mask="url(#mask0_1863_9550)">
<path d="M119.241 131.294C119.374 125.884 117.466 120.496 113.56 115.274C108.251 108.176 96.8908 102.525 87.1312 102.125C81.025 101.878 76.2726 103.653 73.3909 107.257C65.0279 117.738 63.8907 126.53 80.0766 148.172C84.6222 154.25 89.6606 157.304 95.1069 157.219C99.195 157.162 102.893 155.349 105.962 153.054C109.384 150.408 112.296 147.273 114.698 143.651C115.397 142.792 116.02 141.878 116.57 140.909C117.119 139.942 117.586 138.933 117.972 137.884C118.358 136.833 118.658 135.756 118.871 134.651C119.084 133.545 119.206 132.427 119.241 131.294ZM112.461 141.839C112.421 141.868 112.377 141.901 112.367 141.972C112.289 142.096 104.495 154.26 94.9604 154.381C90.4957 154.442 86.2319 151.798 82.2849 146.521C65.8274 124.515 68.9513 117.415 75.5944 109.088C76.1078 108.452 76.6926 107.889 77.3461 107.398C80.2643 105.216 84.1394 104.837 87.1263 104.955C96.105 105.322 106.521 110.466 111.352 116.925C120.867 129.647 114.594 139.195 112.461 141.839Z" fill="#FFE064" fill-opacity="0.7"/>
</g>
<mask id="mask1_1863_9550" style="mask-type:luminance" maskUnits="userSpaceOnUse" x="178" y="-1" width="73" height="75">
<path d="M178.776 27.5505L216.193 -0.43298L250.334 45.2165L212.917 73.2L178.776 27.5505Z" fill="white"/>
</mask>
<g mask="url(#mask1_1863_9550)">
<path d="M201.204 11.6665C196.939 13.4209 193.89 17.4662 192.402 23.3934C190.027 32.8681 192.238 45.3626 197.546 52.4609C201.452 57.6827 206.081 61.0363 211.308 62.4371C212.402 62.7227 213.509 62.92 214.629 63.0272C215.747 63.1352 216.864 63.1525 217.979 63.0774C219.093 63.0029 220.191 62.8402 221.273 62.5854C222.355 62.3324 223.407 61.9916 224.427 61.5637C228.581 60.2823 232.412 58.3741 235.919 55.8393C238.984 53.5473 241.776 50.5044 242.983 46.6033C244.602 41.4027 243.096 35.7065 238.55 29.6286C222.375 8.00058 213.621 6.60618 201.204 11.6665ZM240.317 45.6696C237.496 54.7891 223.631 58.8238 223.493 58.8613L223.335 58.9161C220.192 60.2397 209.269 63.5312 199.755 50.8094C194.937 44.3685 192.928 32.9078 195.112 24.1922C195.843 21.2937 197.303 17.6829 200.221 15.5003C200.876 15.012 201.582 14.6102 202.338 14.2976C212.201 10.2792 219.896 9.28826 236.353 31.2934C240.301 36.5709 241.632 41.408 240.317 45.6696Z" fill="#FFE064" fill-opacity="0.7"/>
</g>
<path d="M110.78 96.7787C114.864 96.7158 118.562 94.9033 121.63 92.6083C125.052 89.9604 127.964 86.8262 130.367 83.2049C131.064 82.3452 131.687 81.4337 132.235 80.4674C132.785 79.5004 133.251 78.4933 133.636 77.4446C134.023 76.397 134.323 75.32 134.535 74.2163C134.749 73.1118 134.872 71.9943 134.907 70.863C135.044 65.4586 133.132 60.0661 129.23 54.8487C122.981 46.4935 107.558 38.4853 96.8777 38.0511C91.8283 37.8459 87.917 39.272 85.5885 42.1894C76.9289 53.0277 79.9673 66.6466 95.7403 87.7365C100.283 93.8101 105.342 96.8556 110.78 96.7787ZM87.7919 44.0205C88.1792 43.535 88.6218 43.1084 89.1209 42.7402C90.9571 41.3669 93.5553 40.7437 96.8697 40.8763C107.595 41.3141 121.884 49.6307 127.019 56.4959C136.529 69.2124 130.272 78.7786 128.127 81.4073L128.031 81.5363C127.951 81.6615 120.162 93.8288 110.627 93.9514C106.162 94.0114 101.895 91.3633 97.9515 86.0911C87.4841 72.0953 78.0937 56.16 87.7919 44.0205Z" fill="#FFE064" fill-opacity="0.7"/>
<path d="M162.148 59.4222C166.301 58.1406 170.13 56.2331 173.636 53.6999C176.706 51.4041 179.498 48.3611 180.703 44.4681C182.323 39.2686 180.813 33.5671 176.271 27.4946C160.498 6.4047 148.289 -0.363765 135.449 4.88546C131.992 6.29355 129.512 9.63388 128.289 14.5441C125.705 24.9001 129.018 41.9791 135.259 50.3246C143.799 61.7236 154.729 62.5021 162.148 59.4222ZM131.013 15.3339C131.824 12.1163 133.158 9.80528 134.995 8.43118C135.49 8.05758 136.026 7.75566 136.603 7.52359C144.673 4.22853 155.425 4.20685 174.083 29.1531C178.026 34.4253 179.361 39.2659 178.042 43.5325C175.218 52.6458 161.356 56.6782 161.214 56.7188L161.063 56.7748C157.922 58.0987 146.99 61.3887 137.48 48.6723C132.342 41.8027 128.403 25.7448 131.013 15.3339Z" fill="#FFE064" fill-opacity="0.7"/>
<path d="M55.6518 61.9451C55.5614 61.8871 55.4668 61.8304 55.3708 61.7769C51.3228 59.9942 46.784 62.5031 44.2537 65.6914C41.7977 68.4781 40.5388 73.3184 43.4585 76.2434C43.8866 76.661 44.4234 76.9558 44.9878 77.1434C49.9538 78.4781 54.9568 74.8809 57.0066 70.5128C58.5392 67.8305 58.45 63.7493 55.6518 61.9451ZM40.1393 51.8982C37.8436 50.4558 34.5684 51.5755 32.7858 53.4872C29.2089 57.2443 27.6431 63.8208 31.1958 68.1145C31.5524 68.481 31.9769 68.7759 32.4404 68.9897C35.7764 70.482 39.2772 67.9647 40.9506 65.168C43.2328 61.5288 44.1129 56.1547 41.0547 52.6784C40.774 52.3627 40.4672 52.1046 40.1394 51.8986L40.1393 51.8982ZM57.3703 80.7272C53.3074 78.3697 48.049 80.484 45.2587 83.864C43.0045 86.1411 42.0812 90.5737 44.9389 92.7693C49.1513 95.4876 54.9543 92.9227 57.6139 89.1685C59.5585 86.809 60.1018 82.7397 57.3703 80.7272ZM22.5917 58.9143C20.9384 57.7979 18.6446 57.7074 16.9832 59.0337C12.5433 62.5836 11.6669 70.2266 15.8268 74.3492C17.5991 76.0152 20.3701 75.6479 22.087 74.1341C25.7498 70.8896 26.6263 64.884 24.1616 60.6753C23.7876 59.948 23.2382 59.352 22.5912 58.9151L22.5917 58.9143ZM34.7491 78.6176C31.4853 76.4637 27.0804 75.9193 23.3413 76.9769C19.1636 78.329 15.0871 80.4232 11.961 83.5523C9.34917 85.5652 9.37614 89.8924 12.1511 91.758C15.4422 94.0736 19.8464 93.6865 23.2935 95.7259C26.4073 97.1709 27.9668 100.318 29.8728 102.965C31.4257 105.324 34.6523 106.953 37.2991 105.361C39.7393 103.568 40.1346 100.192 40.4696 97.3852C40.5715 92.5359 40.6347 87.4098 38.5031 82.9267C37.6644 81.1058 36.3433 79.6695 34.7491 78.6176Z" fill="#FA97A3" fill-opacity="0.5"/>
</g>
<defs>
<clipPath id="clip0_1863_9550">
<rect width="216" height="220" fill="white"/>
</clipPath>
</defs>
</svg>
