<svg width="267" height="475" viewBox="0 0 267 475" fill="none" xmlns="http://www.w3.org/2000/svg">
<g clip-path="url(#clip0_1837_9549)">
<mask id="mask0_1837_9549" style="mask-type:luminance" maskUnits="userSpaceOnUse" x="-27" y="-48" width="321" height="571">
<path d="M293.7 -47.5H-26.7V522.5H293.7V-47.5Z" fill="black" fill-opacity="0.5"/>
</mask>
<g mask="url(#mask0_1837_9549)">
<mask id="mask1_1837_9549" style="mask-type:luminance" maskUnits="userSpaceOnUse" x="0" y="147" width="173" height="219">
<path d="M172.067 147.118H0V365.156H172.067V147.118Z" fill="white"/>
</mask>
<g mask="url(#mask1_1837_9549)">
<mask id="mask2_1837_9549" style="mask-type:luminance" maskUnits="userSpaceOnUse" x="0" y="174" width="139" height="172">
<path d="M0 174.167H138.444V345.694H0V174.167Z" fill="white"/>
</mask>
<g mask="url(#mask2_1837_9549)">
<mask id="mask3_1837_9549" style="mask-type:luminance" maskUnits="userSpaceOnUse" x="-52" y="145" width="225" height="222">
<path d="M37.2855 145.278L172.459 238.919L84.0916 366.661L-51.0823 273.022L37.2855 145.278Z" fill="white"/>
</mask>
<g mask="url(#mask3_1837_9549)">
<mask id="mask4_1837_9549" style="mask-type:luminance" maskUnits="userSpaceOnUse" x="-52" y="145" width="225" height="222">
<path d="M37.2855 145.278L172.459 238.919L84.0916 366.661L-51.0823 273.022L37.2855 145.278Z" fill="white"/>
</mask>
<g mask="url(#mask4_1837_9549)">
<path d="M128.626 208.738C128.348 208.551 128.056 208.368 127.76 208.195C115.233 202.379 100.885 209.966 92.7649 219.797C84.9041 228.376 80.6459 243.452 89.5717 252.777C90.8799 254.109 92.537 255.064 94.2882 255.684C109.713 260.151 125.585 249.186 132.283 235.634C137.251 227.327 137.247 214.549 128.626 208.738ZM80.8378 176.386C73.7623 171.738 63.455 175.049 57.7573 180.929C46.3297 192.479 40.9951 212.972 51.8059 226.618C52.8952 227.786 54.2021 228.733 55.6365 229.43C65.9568 234.295 77.0651 226.621 82.4795 217.966C89.8549 206.71 92.9658 189.941 83.6448 178.881C82.7885 177.876 81.8473 177.05 80.8365 176.387L80.8378 176.386ZM132.733 267.624C120.198 260.009 103.627 266.319 94.6822 276.734C87.487 283.73 84.3053 297.549 93.0856 304.588C106.062 313.342 124.366 305.654 132.926 294.06C139.16 286.787 141.13 274.082 132.733 267.624ZM25.5437 197.32C20.4537 193.729 13.2933 193.312 8.01408 197.365C-6.09561 208.217 -9.34813 232.087 3.37094 245.234C8.79695 250.551 17.4793 249.564 22.944 244.926C34.6059 234.985 37.7477 216.239 30.3297 202.923C29.2108 200.625 27.5343 198.727 25.5424 197.321L25.5437 197.32ZM62.2021 259.7C52.1497 252.768 38.425 250.805 26.6716 253.898C13.5289 257.884 0.65278 264.201 -9.32495 273.813C-17.6198 279.959 -17.8258 293.504 -9.28246 299.506C0.844635 306.946 14.6298 305.993 25.2617 312.577C34.8931 317.281 39.5542 327.222 45.3305 335.618C50.0225 343.093 59.9938 348.381 68.3698 343.553C76.1148 338.083 77.5762 327.542 78.8111 318.775C79.4562 303.602 79.9982 287.563 73.64 273.406C71.142 267.658 67.1118 263.085 62.2021 259.7Z" fill="#FFCDCD"/>
</g>
</g>
</g>
</g>
</g>
<mask id="mask5_1837_9549" style="mask-type:luminance" maskUnits="userSpaceOnUse" x="-27" y="-48" width="321" height="571">
<path d="M293.7 -47.5H-26.7V522.5H293.7V-47.5Z" fill="black" fill-opacity="0.5"/>
</mask>
<g mask="url(#mask5_1837_9549)">
<mask id="mask6_1837_9549" style="mask-type:luminance" maskUnits="userSpaceOnUse" x="175" y="0" width="92" height="105">
<path d="M267 0H175.033V104.566H267V0Z" fill="white"/>
</mask>
<g mask="url(#mask6_1837_9549)">
<mask id="mask7_1837_9549" style="mask-type:luminance" maskUnits="userSpaceOnUse" x="196" y="0" width="72" height="90">
<path d="M196.789 0H267V89.3924H196.789V0Z" fill="white"/>
</mask>
<g mask="url(#mask7_1837_9549)">
<mask id="mask8_1837_9549" style="mask-type:luminance" maskUnits="userSpaceOnUse" x="172" y="-52" width="161" height="159">
<path d="M172.515 7.67572L277.351 -51.0615L332.787 48.0219L227.949 106.758L172.515 7.67572Z" fill="white"/>
</mask>
<g mask="url(#mask8_1837_9549)">
<mask id="mask9_1837_9549" style="mask-type:luminance" maskUnits="userSpaceOnUse" x="172" y="-52" width="161" height="159">
<path d="M172.515 7.67572L277.351 -51.0615L332.787 48.0219L227.949 106.758L172.515 7.67572Z" fill="white"/>
</mask>
<g mask="url(#mask9_1837_9549)">
<path d="M243.477 -31.954C243.264 -31.8316 243.052 -31.6989 242.843 -31.5597C235.004 -25.197 235.375 -13.3336 239.219 -4.84226C242.322 3.07698 250.846 10.7166 259.829 7.84708C261.123 7.41543 262.282 6.63201 263.251 5.68108C271.135 -3.01772 269.037 -16.9672 262.296 -25.7201C258.443 -31.6512 250.058 -35.7526 243.477 -31.9553V-31.954ZM206.907 -10.9486C201.585 -7.79168 200.448 0.0438079 202.476 5.67464C206.386 16.8925 218.117 26.9777 230.541 24.2577C231.658 23.9175 232.698 23.3634 233.616 22.6444C240.122 17.4259 238.653 7.66411 234.714 1.32717C229.697 -7.13325 219.694 -14.5629 209.446 -11.991C208.512 -11.7513 207.668 -11.3982 206.908 -10.9473L206.907 -10.9486ZM283.429 -15.7406C274.408 -9.95253 273.227 2.96102 277.188 12.183C279.468 19.1577 287.512 25.6866 294.95 22.178C304.86 16.4634 305.693 1.96886 300.834 -7.37807C298.065 -13.8104 290.363 -19.1848 283.429 -15.7406ZM202.887 32.1035C198.897 34.294 196.324 38.8643 197.289 43.6344C199.877 56.3895 214.494 66.1926 227.203 62.0577C232.434 60.2009 234.574 54.1797 233.285 49.0991C230.508 38.2458 219.218 30.1617 208.101 30.7583C206.232 30.7557 204.449 31.2479 202.888 32.1048L202.887 32.1035ZM255.583 28.0524C247.807 32.4308 242.113 40.8177 240.368 49.532C238.764 59.4472 238.774 69.9357 241.876 79.5777C243.246 87.0009 252.066 91.4875 258.747 87.801C266.879 83.5373 270.68 74.1736 278.414 69.303C284.593 64.4866 292.611 64.6167 299.973 63.5176C306.384 62.836 313.056 57.9834 312.578 50.93C311.476 44.0841 305.029 39.738 299.673 36.1121C289.926 30.815 279.578 25.3078 268.248 24.9393C263.676 24.7344 259.381 25.9134 255.583 28.0524Z" fill="#FFCDCD"/>
</g>
</g>
</g>
</g>
</g>
<mask id="mask10_1837_9549" style="mask-type:luminance" maskUnits="userSpaceOnUse" x="-27" y="-48" width="321" height="571">
<path d="M293.7 -47.5H-26.7V522.5H293.7V-47.5Z" fill="black" fill-opacity="0.5"/>
</mask>
<g mask="url(#mask10_1837_9549)">
<mask id="mask11_1837_9549" style="mask-type:luminance" maskUnits="userSpaceOnUse" x="174" y="303" width="93" height="104">
<path d="M267 303.472H174.044V406.389H267V303.472Z" fill="white"/>
</mask>
<g mask="url(#mask11_1837_9549)">
<mask id="mask12_1837_9549" style="mask-type:luminance" maskUnits="userSpaceOnUse" x="188" y="315" width="78" height="82">
<path d="M188.548 315.017H265.352V396.493H188.548V315.017Z" fill="white"/>
</mask>
<g mask="url(#mask12_1837_9549)">
<mask id="mask13_1837_9549" style="mask-type:luminance" maskUnits="userSpaceOnUse" x="172" y="303" width="107" height="105">
<path d="M172.515 342.486L241.974 303.57L278.568 368.978L209.109 407.894L172.515 342.486Z" fill="white"/>
</mask>
<g mask="url(#mask13_1837_9549)">
<mask id="mask14_1837_9549" style="mask-type:luminance" maskUnits="userSpaceOnUse" x="172" y="303" width="107" height="105">
<path d="M172.515 342.486L241.974 303.57L278.568 368.978L209.109 407.894L172.515 342.486Z" fill="white"/>
</mask>
<g mask="url(#mask14_1837_9549)">
<path d="M219.531 316.229C219.39 316.31 219.249 316.399 219.11 316.49C213.915 320.702 214.147 328.54 216.682 334.147C218.73 339.376 224.364 344.415 230.314 342.509C231.172 342.223 231.939 341.704 232.582 341.075C237.81 335.319 236.435 326.105 231.982 320.329C229.436 316.414 223.891 313.712 219.531 316.229ZM195.3 330.146C191.775 332.237 191.014 337.414 192.35 341.133C194.926 348.541 202.682 355.192 210.909 353.383C211.648 353.156 212.338 352.789 212.946 352.314C217.258 348.859 216.296 342.41 213.695 338.227C210.382 332.643 203.769 327.744 196.982 329.454C196.363 329.614 195.804 329.848 195.3 330.147V330.146ZM245.962 326.9C239.983 330.735 239.189 339.267 241.801 345.356C243.303 349.962 248.622 354.267 253.548 351.941C260.115 348.156 260.68 338.578 257.474 332.407C255.648 328.16 250.555 324.617 245.962 326.9ZM192.594 358.594C189.95 360.046 188.243 363.069 188.876 366.219C190.577 374.644 200.242 381.106 208.659 378.361C212.124 377.129 213.547 373.148 212.7 369.792C210.873 362.624 203.407 357.295 196.047 357.701C194.811 357.701 193.629 358.028 192.595 358.595L192.594 358.594ZM227.483 355.863C222.33 358.764 218.552 364.311 217.388 370.071C216.317 376.624 216.312 383.554 218.355 389.92C219.254 394.824 225.088 397.779 229.515 395.337C234.902 392.512 237.429 386.321 242.553 383.095C246.648 379.906 251.957 379.985 256.832 379.25C261.076 378.793 265.497 375.579 265.188 370.92C264.466 366.398 260.203 363.534 256.662 361.143C250.215 357.653 243.37 354.026 235.869 353.794C232.842 353.663 229.999 354.446 227.483 355.863Z" fill="#FFCDCD"/>
</g>
</g>
</g>
</g>
</g>
<mask id="mask15_1837_9549" style="mask-type:luminance" maskUnits="userSpaceOnUse" x="-27" y="-48" width="321" height="571">
<path d="M293.7 -47.5H-26.7V522.5H293.7V-47.5Z" fill="black" fill-opacity="0.5"/>
</mask>
<g mask="url(#mask15_1837_9549)">
<mask id="mask16_1837_9549" style="mask-type:luminance" maskUnits="userSpaceOnUse" x="181" y="150" width="39" height="39">
<path d="M219.863 150.087H181.626V188.351H219.863V150.087Z" fill="white"/>
</mask>
<g mask="url(#mask16_1837_9549)">
<mask id="mask17_1837_9549" style="mask-type:luminance" maskUnits="userSpaceOnUse" x="186" y="155" width="29" height="30">
<path d="M186.241 155.694H214.589V184.063H186.241V155.694Z" fill="white"/>
</mask>
<g mask="url(#mask17_1837_9549)">
<mask id="mask18_1837_9549" style="mask-type:luminance" maskUnits="userSpaceOnUse" x="181" y="149" width="39" height="40">
<path d="M201.319 149.739L219.659 171.154L199.573 188.38L181.233 166.965L201.319 149.739Z" fill="white"/>
</mask>
<g mask="url(#mask18_1837_9549)">
<mask id="mask19_1837_9549" style="mask-type:luminance" maskUnits="userSpaceOnUse" x="181" y="149" width="39" height="40">
<path d="M201.319 149.739L219.659 171.154L199.573 188.38L181.233 166.965L201.319 149.739Z" fill="white"/>
</mask>
<g mask="url(#mask19_1837_9549)">
<path d="M213.703 164.24C213.666 164.196 213.626 164.154 213.583 164.112C211.761 162.601 209.064 163.223 207.3 164.491C205.632 165.563 204.283 167.868 205.359 169.801C205.518 170.078 205.751 170.309 206.015 170.488C208.374 171.904 211.468 170.789 213.156 168.845C214.333 167.691 214.88 165.579 213.703 164.24ZM207.188 156.794C206.217 155.715 204.372 155.809 203.177 156.531C200.792 157.936 199.032 161.089 200.236 163.819C200.366 164.06 200.541 164.273 200.748 164.451C202.246 165.709 204.412 164.929 205.677 163.737C207.379 162.201 208.613 159.566 207.546 157.33C207.446 157.126 207.327 156.948 207.188 156.794ZM211.859 174.151C210.113 172.342 207.103 172.657 205.178 173.984C203.688 174.824 202.569 176.968 203.72 178.517C205.491 180.533 208.846 180.067 210.758 178.527C212.101 177.599 212.972 175.587 211.859 174.151ZM197.148 157.823C196.461 157.006 195.294 156.623 194.248 157.06C191.449 158.234 189.889 162.035 191.428 164.767C192.098 165.884 193.576 166.102 194.678 165.576C197.032 164.446 198.356 161.486 197.699 158.96C197.613 158.53 197.417 158.144 197.148 157.824V157.823ZM200.537 169.742C199.171 168.154 196.986 167.228 194.91 167.222C192.567 167.304 190.167 167.782 188.105 168.931C186.47 169.582 185.856 171.811 187.011 173.178C188.367 174.853 190.687 175.302 192.162 176.857C193.553 178.057 193.898 179.904 194.493 181.546C194.949 182.988 196.372 184.3 197.963 183.869C199.479 183.306 200.171 181.629 200.751 180.234C201.508 177.755 202.286 175.128 201.84 172.51C201.674 171.45 201.203 170.518 200.537 169.742Z" fill="#FFCDCD"/>
</g>
</g>
</g>
</g>
</g>
<mask id="mask20_1837_9549" style="mask-type:luminance" maskUnits="userSpaceOnUse" x="-27" y="-48" width="321" height="571">
<path d="M293.7 -47.5H-26.7V522.5H293.7V-47.5Z" fill="black" fill-opacity="0.5"/>
</mask>
<g mask="url(#mask20_1837_9549)">
<mask id="mask21_1837_9549" style="mask-type:luminance" maskUnits="userSpaceOnUse" x="221" y="102" width="36" height="35">
<path d="M256.122 102.257H221.841V136.233H256.122V102.257Z" fill="white"/>
</mask>
<g mask="url(#mask21_1837_9549)">
<mask id="mask22_1837_9549" style="mask-type:luminance" maskUnits="userSpaceOnUse" x="226" y="104" width="27" height="30">
<path d="M226.126 104.896H252.826V133.924H226.126V104.896Z" fill="white"/>
</mask>
<g mask="url(#mask22_1837_9549)">
<mask id="mask23_1837_9549" style="mask-type:luminance" maskUnits="userSpaceOnUse" x="221" y="102" width="36" height="35">
<path d="M229.327 102.336L256.172 110.922L248.118 136.137L221.273 127.551L229.327 102.336Z" fill="white"/>
</mask>
<g mask="url(#mask23_1837_9549)">
<mask id="mask24_1837_9549" style="mask-type:luminance" maskUnits="userSpaceOnUse" x="221" y="102" width="36" height="35">
<path d="M229.327 102.336L256.172 110.922L248.118 136.137L221.273 127.551L229.327 102.336Z" fill="white"/>
</mask>
<g mask="url(#mask24_1837_9549)">
<path d="M247.476 108.169C247.421 108.152 247.364 108.136 247.306 108.122C244.963 107.794 242.994 109.742 242.158 111.748C241.302 113.537 241.362 116.206 243.293 117.286C243.573 117.438 243.893 117.512 244.211 117.527C246.962 117.492 249.01 114.918 249.427 112.376C249.822 110.774 249.18 108.689 247.476 108.169ZM238.024 105.255C236.632 104.847 235.11 105.898 234.472 107.139C233.181 109.589 233.337 113.196 235.793 114.888C236.03 115.025 236.292 115.114 236.562 115.156C238.496 115.44 239.931 113.638 240.383 111.958C241.024 109.756 240.692 106.866 238.608 105.523C238.418 105.402 238.222 105.315 238.024 105.255ZM251.107 117.572C248.672 116.95 246.275 118.799 245.333 120.942C244.507 122.439 244.679 124.851 246.472 125.565C249.037 126.351 251.648 124.19 252.467 121.875C253.122 120.38 252.807 118.21 251.107 117.572ZM230.02 111.408C229.005 111.074 227.812 111.36 227.151 112.283C225.386 114.752 226.053 118.807 228.797 120.322C229.952 120.921 231.324 120.331 231.986 119.303C233.396 117.105 232.97 113.89 231.085 112.084C230.786 111.765 230.416 111.539 230.02 111.408ZM239.158 119.771C237.163 119.137 234.817 119.496 233.047 120.582C231.095 121.884 229.304 123.551 228.153 125.613C227.103 127.026 227.75 129.246 229.451 129.803C231.483 130.515 233.693 129.678 235.765 130.226C237.579 130.517 238.841 131.907 240.21 132.991C241.353 133.978 243.253 134.348 244.382 133.145C245.375 131.87 245.085 130.077 244.847 128.585C244.19 126.079 243.473 123.435 241.72 121.44C241.022 120.626 240.133 120.08 239.158 119.771Z" fill="#FFCDCD"/>
</g>
</g>
</g>
</g>
</g>
<mask id="mask25_1837_9549" style="mask-type:luminance" maskUnits="userSpaceOnUse" x="-27" y="-48" width="321" height="571">
<path d="M293.7 -47.5H-26.7V522.5H293.7V-47.5Z" fill="black" fill-opacity="0.5"/>
</mask>
<g mask="url(#mask25_1837_9549)">
<mask id="mask26_1837_9549" style="mask-type:luminance" maskUnits="userSpaceOnUse" x="90" y="53" width="38" height="38">
<path d="M127.896 53.1076H90.3186V90.3819H127.896V53.1076Z" fill="white"/>
</mask>
<g mask="url(#mask26_1837_9549)">
<mask id="mask27_1837_9549" style="mask-type:luminance" maskUnits="userSpaceOnUse" x="94" y="57" width="29" height="29">
<path d="M94.6038 57.066H122.293V85.7639H94.6038V57.066Z" fill="white"/>
</mask>
<g mask="url(#mask27_1837_9549)">
<mask id="mask28_1837_9549" style="mask-type:luminance" maskUnits="userSpaceOnUse" x="90" y="52" width="39" height="39">
<path d="M128.132 75.2766L104.205 90.1822L90.2258 67.7104L114.151 52.8048L128.132 75.2766Z" fill="white"/>
</mask>
<g mask="url(#mask28_1837_9549)">
<mask id="mask29_1837_9549" style="mask-type:luminance" maskUnits="userSpaceOnUse" x="90" y="52" width="39" height="39">
<path d="M128.132 75.2766L104.205 90.1822L90.2258 67.7104L114.151 52.8048L128.132 75.2766Z" fill="white"/>
</mask>
<g mask="url(#mask29_1837_9549)">
<path d="M111.935 85.3361C111.984 85.3052 112.033 85.2717 112.079 85.2369C113.848 83.6636 113.64 80.8997 112.655 78.9644C111.847 77.1527 109.776 75.4686 107.704 76.2404C107.405 76.3564 107.142 76.5523 106.925 76.7855C105.17 78.9051 105.803 82.1341 107.469 84.0978C108.431 85.4379 110.435 86.2973 111.935 85.3361ZM120.275 80.0171C121.488 79.2195 121.673 77.3795 121.141 76.0884C120.113 73.5178 117.266 71.3003 114.387 72.0772C114.129 72.1687 113.891 72.3105 113.684 72.4883C112.216 73.7807 112.659 76.0407 113.645 77.4736C114.905 79.3883 117.321 81.0067 119.692 80.289C119.908 80.222 120.102 80.1305 120.275 80.0171ZM102.423 82.0143C104.474 80.5596 104.619 77.5341 103.599 75.4287C102.994 73.8283 101.046 72.3981 99.3407 73.3026C97.081 74.7483 97.0346 78.1384 98.2669 80.2632C98.9802 81.7308 100.837 82.8969 102.423 82.0143ZM120.776 69.9293C121.687 69.3726 122.242 68.2774 121.968 67.1757C121.232 64.2301 117.712 62.1118 114.782 63.2225C113.577 63.716 113.138 65.145 113.492 66.315C114.251 68.8147 116.976 70.5697 119.57 70.3029C120.007 70.2823 120.419 70.147 120.776 69.9293ZM108.491 71.4794C110.265 70.3687 111.51 68.3483 111.829 66.2956C112.104 63.9634 111.994 61.5178 111.17 59.3054C110.773 57.5891 108.664 56.6446 107.14 57.5801C105.281 58.6689 104.487 60.8955 102.728 62.1208C101.331 63.3153 99.4553 63.3771 97.7441 63.7186C96.2505 63.9505 94.7401 65.1592 94.9242 66.7982C95.2513 68.383 96.8041 69.3224 98.0943 70.1071C100.427 71.2294 102.905 72.3955 105.559 72.3517C106.631 72.3465 107.624 72.0218 108.491 71.4794Z" fill="#FFCDCD"/>
</g>
</g>
</g>
</g>
</g>
<mask id="mask30_1837_9549" style="mask-type:luminance" maskUnits="userSpaceOnUse" x="-27" y="-48" width="321" height="571">
<path d="M293.7 -47.5H-26.7V522.5H293.7V-47.5Z" fill="black" fill-opacity="0.5"/>
</mask>
<g mask="url(#mask30_1837_9549)">
<mask id="mask31_1837_9549" style="mask-type:luminance" maskUnits="userSpaceOnUse" x="212" y="448" width="39" height="27">
<path d="M250.189 448.611H212.611V475H250.189V448.611Z" fill="white"/>
</mask>
<g mask="url(#mask31_1837_9549)">
<mask id="mask32_1837_9549" style="mask-type:luminance" maskUnits="userSpaceOnUse" x="217" y="452" width="28" height="23">
<path d="M217.226 452.569H244.585V475H217.226V452.569Z" fill="white"/>
</mask>
<g mask="url(#mask32_1837_9549)">
<mask id="mask33_1837_9549" style="mask-type:luminance" maskUnits="userSpaceOnUse" x="212" y="448" width="39" height="38">
<path d="M250.507 470.774L226.582 485.678L212.602 463.206L236.527 448.301L250.507 470.774Z" fill="white"/>
</mask>
<g mask="url(#mask33_1837_9549)">
<mask id="mask34_1837_9549" style="mask-type:luminance" maskUnits="userSpaceOnUse" x="212" y="448" width="39" height="38">
<path d="M250.507 470.774L226.582 485.678L212.602 463.206L236.527 448.301L250.507 470.774Z" fill="white"/>
</mask>
<g mask="url(#mask34_1837_9549)">
<path d="M234.311 480.832C234.36 480.801 234.408 480.767 234.455 480.733C236.225 479.159 236.016 476.397 235.031 474.46C234.224 472.648 232.152 470.964 230.079 471.737C229.781 471.852 229.519 472.048 229.301 472.281C227.546 474.401 228.18 477.631 229.846 479.595C230.808 480.934 232.811 481.794 234.311 480.833V480.832ZM242.651 475.513C243.864 474.715 244.049 472.875 243.518 471.585C242.489 469.014 239.642 466.796 236.763 467.573C236.505 467.666 236.267 467.806 236.06 467.985C234.592 469.276 235.035 471.536 236.021 472.969C237.282 474.885 239.697 476.502 242.068 475.785C242.284 475.719 242.478 475.626 242.651 475.513ZM224.8 477.51C226.851 476.057 226.995 473.031 225.974 470.926C225.37 469.325 223.422 467.895 221.717 468.798C219.457 470.245 219.411 473.635 220.643 475.759C221.356 477.228 223.213 478.393 224.8 477.51ZM243.152 465.426C244.062 464.868 244.619 463.773 244.344 462.671C243.608 459.727 240.089 457.608 237.158 458.718C235.953 459.212 235.514 460.641 235.867 461.811C236.628 464.31 239.351 466.067 241.947 465.799C242.383 465.778 242.795 465.643 243.152 465.425V465.426ZM230.867 466.976C232.64 465.866 233.886 463.844 234.206 461.791C234.48 459.46 234.37 457.014 233.546 454.801C233.15 453.085 231.041 452.14 229.516 453.077C227.657 454.165 226.864 456.392 225.103 457.617C223.708 458.811 221.83 458.873 220.119 459.214C218.627 459.446 217.116 460.655 217.3 462.295C217.628 463.879 219.18 464.818 220.469 465.603C222.804 466.726 225.281 467.891 227.935 467.847C229.007 467.842 230 467.519 230.867 466.976Z" fill="#FFCDCD"/>
</g>
</g>
</g>
</g>
</g>
<mask id="mask35_1837_9549" style="mask-type:luminance" maskUnits="userSpaceOnUse" x="-27" y="-48" width="321" height="571">
<path d="M293.7 -47.5H-26.7V522.5H293.7V-47.5Z" fill="black" fill-opacity="0.5"/>
</mask>
<g mask="url(#mask35_1837_9549)">
<mask id="mask36_1837_9549" style="mask-type:luminance" maskUnits="userSpaceOnUse" x="89" y="0" width="39" height="32">
<path d="M127.567 0H89.3296V31.3368H127.567V0Z" fill="white"/>
</mask>
<g mask="url(#mask36_1837_9549)">
<mask id="mask37_1837_9549" style="mask-type:luminance" maskUnits="userSpaceOnUse" x="95" y="0" width="28" height="27">
<path d="M95.2629 0H122.622V26.059H95.2629V0Z" fill="white"/>
</mask>
<g mask="url(#mask37_1837_9549)">
<mask id="mask38_1837_9549" style="mask-type:luminance" maskUnits="userSpaceOnUse" x="89" y="-7" width="40" height="39">
<path d="M110.799 31.5468L89.4944 13.0849L106.81 -6.92578L128.116 11.5361L110.799 31.5468Z" fill="white"/>
</mask>
<g mask="url(#mask38_1837_9549)">
<mask id="mask39_1837_9549" style="mask-type:luminance" maskUnits="userSpaceOnUse" x="89" y="-7" width="40" height="39">
<path d="M110.799 31.5468L89.4944 13.0849L106.81 -6.92578L128.116 11.5361L110.799 31.5468Z" fill="white"/>
</mask>
<g mask="url(#mask39_1837_9549)">
<path d="M96.4064 19.0405C96.4501 19.0778 96.4965 19.1139 96.5441 19.1487C98.5696 20.3741 101.146 19.3587 102.703 17.8434C104.193 16.5356 105.187 14.0578 103.837 12.3054C103.639 12.0541 103.374 11.8608 103.087 11.7217C100.545 10.6703 97.6489 12.2319 96.2673 14.4057C95.2733 15.7213 95.0453 17.8911 96.4064 19.0405ZM103.952 25.4393C105.071 26.3631 106.884 25.9959 107.958 25.1055C110.108 23.3622 111.383 19.9837 109.789 17.462C109.625 17.243 109.419 17.0575 109.189 16.9118C107.521 15.8901 105.494 16.9827 104.418 18.3498C102.963 20.1203 102.132 22.9086 103.519 24.9625C103.647 25.1494 103.792 25.3078 103.952 25.4393ZM96.7643 8.96554C98.7588 10.4963 101.689 9.73866 103.398 8.14089C104.746 7.08946 105.536 4.80362 104.169 3.44166C102.12 1.70989 98.8696 2.66855 97.206 4.47376C96.0162 5.59091 95.4522 7.71053 96.7643 8.96554ZM113.729 22.9344C114.53 23.6405 115.74 23.8467 116.709 23.2591C119.304 21.6845 120.285 17.694 118.358 15.22C117.531 14.215 116.037 14.2176 115.024 14.9018C112.863 16.3681 111.993 19.4902 113.015 21.892C113.165 22.303 113.416 22.6574 113.729 22.9344ZM108.614 11.6482C110.199 13.0167 112.498 13.6094 114.551 13.3079C116.858 12.8801 119.161 12.0515 121.029 10.6097C122.55 9.72319 122.828 7.42705 121.483 6.24677C119.895 4.79074 117.534 4.69152 115.844 3.37208C114.291 2.39023 113.677 0.614645 112.845 -0.919982C112.181 -2.27808 110.58 -3.36559 109.07 -2.70458C107.655 -1.92245 107.217 -0.161044 106.85 1.304C106.469 3.86816 106.088 6.58049 106.916 9.1047C107.238 10.1278 107.84 10.9808 108.614 11.6482Z" fill="#FFCDCD"/>
</g>
</g>
</g>
</g>
</g>
<mask id="mask40_1837_9549" style="mask-type:luminance" maskUnits="userSpaceOnUse" x="-27" y="-48" width="321" height="571">
<path d="M293.7 -47.5H-26.7V522.5H293.7V-47.5Z" fill="black" fill-opacity="0.5"/>
</mask>
<g mask="url(#mask40_1837_9549)">
<mask id="mask41_1837_9549" style="mask-type:luminance" maskUnits="userSpaceOnUse" x="0" y="0" width="95" height="89">
<path d="M94.2741 0H0V88.7326H94.2741V0Z" fill="white"/>
</mask>
<g mask="url(#mask41_1837_9549)">
<mask id="mask42_1837_9549" style="mask-type:luminance" maskUnits="userSpaceOnUse" x="0" y="4" width="38" height="64">
<path d="M0 4.28821H37.9074V67.9514H0V4.28821Z" fill="white"/>
</mask>
<g mask="url(#mask42_1837_9549)">
<mask id="mask43_1837_9549" style="mask-type:luminance" maskUnits="userSpaceOnUse" x="-36" y="-43" width="131" height="132">
<path d="M46.9375 -42.3266L94.2136 42.047L11.4096 88.5097L-35.8665 4.13617L46.9375 -42.3266Z" fill="white"/>
</mask>
<g mask="url(#mask43_1837_9549)">
<mask id="mask44_1837_9549" style="mask-type:luminance" maskUnits="userSpaceOnUse" x="-36" y="-43" width="131" height="132">
<path d="M46.9375 -42.3266L94.2136 42.047L11.4096 88.5097L-35.8665 4.13617L46.9375 -42.3266Z" fill="white"/>
</mask>
<g mask="url(#mask44_1837_9549)">
<path d="M37.7671 28.3153C37.7787 28.2264 37.7736 28.14 37.7504 28.0537C37.7272 27.9674 37.6899 27.8888 37.6345 27.8179C37.5804 27.747 37.5147 27.689 37.4375 27.6439C37.3615 27.5988 37.2778 27.5705 37.1903 27.5589C37.1014 27.5473 37.0139 27.5525 36.9276 27.5756C36.8413 27.5988 36.7628 27.6375 36.692 27.6916C36.6211 27.7457 36.5632 27.8114 36.5181 27.8888C36.4744 27.9661 36.446 28.0485 36.4344 28.1374C36.1422 30.4065 35.7147 32.6486 35.1507 34.8648C34.588 37.0823 33.8927 39.2561 33.066 41.3886C32.2394 43.5211 31.2866 45.5956 30.2075 47.6121C29.1298 49.63 27.9336 51.5743 26.6202 53.4466C21.65 60.487 15.7515 65.1244 10.4362 66.1746C5.55741 67.1371 1.4834 64.9762 -1.34421 59.9278C-4.53621 54.2313 -5.8264 47.9059 -4.97142 42.1179L-4.90189 41.6656C-3.43272 41.9813 -1.9481 42.1553 -0.446739 42.19C4.02129 42.2725 7.45278 40.9582 8.7301 38.6737C9.35717 37.5527 9.74989 35.6663 8.07857 33.0583C5.92567 29.6953 2.85986 28.7585 -0.122259 30.5612C-2.7902 32.1602 -4.93537 35.7036 -5.941 40.0421C-11.6014 38.5113 -17.4201 34.7952 -20.6121 28.5536C-22.8332 24.21 -23.0135 20.3767 -21.1387 17.1515C-16.7917 9.65491 -1.86312 6.33569 10.6705 5.7507C17.6327 5.41826 23.6471 7.333 28.5465 11.4408C32.2149 14.5126 33.8438 17.7275 33.8618 17.7661C33.9017 17.846 33.9558 17.9156 34.0227 17.9749C34.0897 18.0329 34.1657 18.0767 34.2506 18.105C34.3356 18.1334 34.4219 18.145 34.5107 18.1385C34.6009 18.1334 34.6846 18.1102 34.7644 18.0702C34.8442 18.0303 34.9138 17.9762 34.973 17.9092C35.0309 17.8422 35.0747 17.7661 35.103 17.6811C35.1327 17.5961 35.143 17.5097 35.1378 17.4208C35.1314 17.3319 35.1082 17.2469 35.0683 17.167C34.9923 17.0304 33.3223 13.6996 29.4504 10.4435C25.894 7.4451 19.7354 3.96352 10.5971 4.39646C4.34448 4.6954 -16.502 6.44521 -22.3117 16.4699C-24.4157 20.1203 -24.2522 24.3763 -21.8134 29.1528C-21.6718 29.4041 -21.5482 29.6579 -21.4091 29.9079C-17.9467 36.085 -11.9876 39.7998 -6.20753 41.3461C-6.23972 41.5342 -6.27191 41.7249 -6.29767 41.9156C-7.20544 48.0038 -5.85086 54.6268 -2.51465 60.5811C1.45378 67.6628 6.86177 68.2478 10.7002 67.4888C16.3502 66.3743 22.5565 61.5372 27.7224 54.2197C29.0667 52.3036 30.2912 50.3129 31.3947 48.2487C32.4982 46.1845 33.4729 44.061 34.3202 41.8782C35.1661 39.6955 35.8769 37.4702 36.4538 35.2011C37.0306 32.932 37.4684 30.6372 37.7671 28.3153ZM-4.64566 40.3487C-4.27225 38.6659 -3.67608 37.0643 -2.85716 35.5464C-1.89273 33.7953 -0.713275 32.4694 0.546013 31.7105C2.90106 30.297 5.16855 31.0366 6.93001 33.7889C7.02787 33.9396 7.11672 34.0878 7.19655 34.2321C8.01547 35.692 8.13007 36.9638 7.53906 38.0243C6.52055 39.8295 3.4689 40.9247 -0.4403 40.8513C-1.85797 40.8178 -3.26018 40.6503 -4.64566 40.3487Z" fill="#FFDE59"/>
</g>
</g>
</g>
<mask id="mask45_1837_9549" style="mask-type:luminance" maskUnits="userSpaceOnUse" x="45" y="37" width="27" height="26">
<path d="M45.8186 37.934H71.8593V62.6736H45.8186V37.934Z" fill="white"/>
</mask>
<g mask="url(#mask45_1837_9549)">
<mask id="mask46_1837_9549" style="mask-type:luminance" maskUnits="userSpaceOnUse" x="-36" y="-43" width="131" height="132">
<path d="M46.9375 -42.3266L94.2136 42.047L11.4096 88.5097L-35.8665 4.13614L46.9375 -42.3266Z" fill="white"/>
</mask>
<g mask="url(#mask46_1837_9549)">
<mask id="mask47_1837_9549" style="mask-type:luminance" maskUnits="userSpaceOnUse" x="-36" y="-43" width="131" height="132">
<path d="M46.9375 -42.3266L94.2136 42.047L11.4096 88.5097L-35.8665 4.13614L46.9375 -42.3266Z" fill="white"/>
</mask>
<g mask="url(#mask47_1837_9549)">
<path d="M70.927 44.3302C70.3308 42.1642 68.5939 40.4183 65.8873 39.2818C61.5609 37.4689 55.5696 37.6338 51.9476 39.6658C49.2835 41.1605 47.4602 43.1345 46.5215 45.535C46.1327 46.5478 45.9125 47.5953 45.8623 48.679C45.8121 49.7639 45.9344 50.827 46.228 51.8719C46.6078 53.9503 47.3006 55.9192 48.3036 57.7772C49.2165 59.4072 50.4977 60.9599 52.2669 61.8167C54.6245 62.9622 57.3826 62.6491 60.4832 60.9096C71.5167 54.7183 72.6408 50.6311 70.927 44.3302ZM52.8476 60.6068C48.7131 58.607 47.5594 51.6864 47.5491 51.6181L47.531 51.5382C47.0778 49.9417 46.1159 44.481 52.6055 40.8396C55.8915 38.9958 61.3871 38.854 65.3658 40.5214C66.6895 41.078 68.308 42.0341 69.1784 43.5868C69.3729 43.9347 69.5235 44.3006 69.6304 44.6846C70.9901 49.6892 71.0442 53.4401 59.8175 59.7397C57.1263 61.2498 54.7803 61.541 52.8476 60.6068Z" fill="#FFDE59"/>
</g>
</g>
</g>
<mask id="mask48_1837_9549" style="mask-type:luminance" maskUnits="userSpaceOnUse" x="35" y="0" width="30" height="9">
<path d="M35.6001 0H64.2779V8.57639H35.6001V0Z" fill="white"/>
</mask>
<g mask="url(#mask48_1837_9549)">
<mask id="mask49_1837_9549" style="mask-type:luminance" maskUnits="userSpaceOnUse" x="-36" y="-43" width="131" height="132">
<path d="M46.9375 -42.3266L94.2136 42.047L11.4096 88.5097L-35.8665 4.13614L46.9375 -42.3266Z" fill="white"/>
</mask>
<g mask="url(#mask49_1837_9549)">
<mask id="mask50_1837_9549" style="mask-type:luminance" maskUnits="userSpaceOnUse" x="-36" y="-43" width="131" height="132">
<path d="M46.9375 -42.3266L94.2136 42.047L11.4096 88.5097L-35.8665 4.13614L46.9375 -42.3266Z" fill="white"/>
</mask>
<g mask="url(#mask50_1837_9549)">
<path d="M35.7674 -5.00204C35.5781 -3.04349 36.2309 -1.1455 37.1452 0.487052C38.2074 2.3116 39.5247 3.92869 41.0968 5.33704C41.8346 6.13206 42.6793 6.79049 43.6296 7.31234C44.5798 7.83419 45.5893 8.19369 46.6555 8.39083C49.1882 8.84181 51.8253 8.31352 54.488 6.82013C58.7501 4.42863 63.3404 -2.37604 64.1168 -7.4541C64.4851 -9.85461 64.0241 -11.8273 62.7777 -13.1494C58.1462 -18.0651 51.5819 -17.5857 40.8226 -11.549C37.7246 -9.8108 36.0224 -7.60743 35.7674 -5.00204ZM61.7978 -12.2255C62.0051 -12.0064 62.1828 -11.7642 62.3283 -11.4988C62.8756 -10.5221 63.0301 -9.23483 62.7893 -7.65897C62.009 -2.56159 57.3337 3.68 53.8314 5.645C47.3444 9.28506 43.1841 5.60763 42.0626 4.39384L42.0072 4.33844C41.9531 4.29205 36.6507 -0.304098 37.1039 -4.87319C37.3151 -7.01213 38.7894 -8.86374 41.4793 -10.3739C48.6178 -14.3799 56.6113 -17.7326 61.7978 -12.2255Z" fill="#FFDE59"/>
</g>
</g>
</g>
<mask id="mask51_1837_9549" style="mask-type:luminance" maskUnits="userSpaceOnUse" x="50" y="7" width="29" height="26">
<path d="M50.1038 7.91666H78.1223V32.9861H50.1038V7.91666Z" fill="white"/>
</mask>
<g mask="url(#mask51_1837_9549)">
<mask id="mask52_1837_9549" style="mask-type:luminance" maskUnits="userSpaceOnUse" x="-36" y="-43" width="131" height="132">
<path d="M46.9375 -42.3266L94.2136 42.047L11.4096 88.5097L-35.8665 4.13614L46.9375 -42.3266Z" fill="white"/>
</mask>
<g mask="url(#mask52_1837_9549)">
<mask id="mask53_1837_9549" style="mask-type:luminance" maskUnits="userSpaceOnUse" x="-36" y="-43" width="131" height="132">
<path d="M46.9375 -42.3266L94.2136 42.047L11.4096 88.5097L-35.8665 4.13614L46.9375 -42.3266Z" fill="white"/>
</mask>
<g mask="url(#mask53_1837_9549)">
<path d="M50.5737 22.2373C50.9535 24.3157 51.645 26.2832 52.6481 28.1413C53.5623 29.7726 54.8421 31.3265 56.6075 32.1808C58.9651 33.3276 61.7257 33.0132 64.8237 31.2737C75.5831 25.237 79.4189 19.8819 77.6394 13.3645C77.163 11.6109 75.726 10.1858 73.483 9.25029C68.7535 7.2737 60.5489 7.63835 56.2907 10.0273C50.4746 13.2962 49.523 18.4684 50.5737 22.2373ZM72.9666 10.4963C74.4345 11.1135 75.4504 11.9175 75.9977 12.8942C76.1458 13.1571 76.2591 13.4354 76.3376 13.7279C77.454 17.8228 76.8874 22.9679 64.1619 30.1089C61.4721 31.6177 59.1248 31.9102 57.1908 30.9747C53.0575 28.9724 51.9051 22.0543 51.8935 21.9847L51.8755 21.9074C51.4222 20.3109 50.4617 14.8463 56.9487 11.2063C60.4536 9.23998 68.2128 8.50424 72.9666 10.4963Z" fill="#FFDE59"/>
</g>
</g>
</g>
</g>
</g>
<mask id="mask54_1837_9549" style="mask-type:luminance" maskUnits="userSpaceOnUse" x="-27" y="-48" width="321" height="571">
<path d="M293.7 -47.5H-26.7V522.5H293.7V-47.5Z" fill="black" fill-opacity="0.5"/>
</mask>
<g mask="url(#mask54_1837_9549)">
<mask id="mask55_1837_9549" style="mask-type:luminance" maskUnits="userSpaceOnUse" x="192" y="202" width="75" height="94">
<path d="M267 202.535H192.174V295.226H267V202.535Z" fill="white"/>
</mask>
<g mask="url(#mask55_1837_9549)">
<mask id="mask56_1837_9549" style="mask-type:luminance" maskUnits="userSpaceOnUse" x="226" y="242" width="41" height="44">
<path d="M226.126 242.448H267V285.99H226.126V242.448Z" fill="white"/>
</mask>
<g mask="url(#mask56_1837_9549)">
<mask id="mask57_1837_9549" style="mask-type:luminance" maskUnits="userSpaceOnUse" x="192" y="202" width="93" height="93">
<path d="M192.403 239.795L248.551 202.767L284.875 257.92L228.726 294.95L192.403 239.795Z" fill="white"/>
</mask>
<g mask="url(#mask57_1837_9549)">
<mask id="mask58_1837_9549" style="mask-type:luminance" maskUnits="userSpaceOnUse" x="192" y="202" width="93" height="93">
<path d="M192.403 239.795L248.551 202.767L284.875 257.92L228.726 294.95L192.403 239.795Z" fill="white"/>
</mask>
<g mask="url(#mask58_1837_9549)">
<path d="M241.834 242.632C241.772 242.628 241.711 242.636 241.653 242.657C241.594 242.676 241.541 242.707 241.495 242.748C241.449 242.789 241.413 242.838 241.384 242.894C241.357 242.949 241.342 243.008 241.338 243.07C241.334 243.132 241.343 243.193 241.364 243.252C241.383 243.31 241.414 243.363 241.455 243.409C241.496 243.456 241.545 243.493 241.601 243.52C241.656 243.547 241.715 243.562 241.777 243.566C244.962 243.745 248.081 244.303 251.131 245.243C254.182 246.181 257.074 247.471 259.81 249.113C264.939 252.212 268.446 256.074 269.439 259.712C270.348 263.049 269.052 265.985 265.692 268.2C261.901 270.701 257.58 271.911 253.525 271.608L253.207 271.583C253.353 270.547 253.4 269.507 253.35 268.463C253.185 265.358 252.104 263.042 250.457 262.269C249.648 261.89 248.321 261.711 246.595 263.002C244.37 264.665 243.873 266.84 245.271 268.82C246.513 270.592 249.075 271.903 252.133 272.384C251.353 276.39 249.066 280.614 244.896 283.142C241.996 284.901 239.346 285.216 237.018 284.077C231.603 281.435 228.562 271.237 227.535 262.568C226.958 257.752 227.987 253.482 230.593 249.875C232.54 247.176 234.689 245.884 234.714 245.869C234.767 245.838 234.813 245.797 234.851 245.748C234.888 245.698 234.914 245.643 234.929 245.583C234.945 245.522 234.949 245.462 234.94 245.4C234.932 245.339 234.911 245.281 234.879 245.227C234.848 245.174 234.807 245.129 234.758 245.092C234.708 245.055 234.654 245.028 234.593 245.012C234.533 244.997 234.472 244.993 234.41 245.002C234.35 245.011 234.292 245.03 234.238 245.062C234.148 245.122 231.92 246.447 229.856 249.298C227.953 251.916 225.845 256.365 226.598 262.687C227.116 267.011 229.364 281.393 236.603 284.925C239.238 286.203 242.181 285.877 245.372 283.946C245.538 283.835 245.709 283.736 245.874 283.628C249.985 280.915 252.266 276.594 253.05 272.504C253.183 272.518 253.317 272.531 253.449 272.539C257.716 272.865 262.241 271.594 266.203 268.98C270.917 265.872 271.053 262.089 270.338 259.463C269.284 255.596 265.622 251.531 260.292 248.309C257.491 246.629 254.529 245.307 251.408 244.347C248.286 243.387 245.095 242.815 241.834 242.632ZM252.283 271.471C251.097 271.294 249.957 270.96 248.864 270.469C247.601 269.887 246.623 269.134 246.035 268.298C244.938 266.734 245.338 265.123 247.159 263.763C247.26 263.688 247.357 263.618 247.453 263.555C248.425 262.915 249.302 262.772 250.065 263.129C251.368 263.745 252.279 265.809 252.422 268.526C252.468 269.512 252.422 270.494 252.283 271.471Z" fill="#FFDE59"/>
</g>
</g>
</g>
<mask id="mask59_1837_9549" style="mask-type:luminance" maskUnits="userSpaceOnUse" x="203" y="247" width="18" height="19">
<path d="M203.382 247.066H220.852V265.538H203.382V247.066Z" fill="white"/>
</mask>
<g mask="url(#mask59_1837_9549)">
<mask id="mask60_1837_9549" style="mask-type:luminance" maskUnits="userSpaceOnUse" x="192" y="202" width="93" height="93">
<path d="M192.403 239.795L248.551 202.767L284.875 257.92L228.726 294.95L192.403 239.795Z" fill="white"/>
</mask>
<g mask="url(#mask60_1837_9549)">
<mask id="mask61_1837_9549" style="mask-type:luminance" maskUnits="userSpaceOnUse" x="192" y="202" width="93" height="93">
<path d="M192.403 239.795L248.551 202.767L284.875 257.92L228.726 294.95L192.403 239.795Z" fill="white"/>
</mask>
<g mask="url(#mask61_1837_9549)">
<path d="M220.758 257.182C220.945 255.399 220.448 253.596 219.278 251.822C217.69 249.41 214.04 247.395 210.789 247.133C208.755 246.971 207.119 247.492 206.061 248.643C202.991 251.989 202.381 254.873 207.224 262.228C208.583 264.293 210.188 265.367 212.011 265.412C213.379 265.447 214.662 264.899 215.748 264.183C216.962 263.355 218.018 262.361 218.915 261.197C219.43 260.644 219.845 260.026 220.16 259.339C220.476 258.652 220.674 257.933 220.758 257.182ZM218.215 260.57C218.201 260.579 218.185 260.589 218.18 260.612C218.15 260.652 215.226 264.56 212.036 264.474C210.542 264.434 209.186 263.506 208.005 261.713C203.08 254.235 204.311 251.934 206.75 249.277C206.938 249.073 207.149 248.896 207.38 248.742C208.412 248.062 209.718 247.987 210.713 248.067C213.704 248.307 217.052 250.143 218.497 252.337C221.344 256.66 218.998 259.726 218.215 260.57Z" fill="#FFDE59"/>
</g>
</g>
</g>
<mask id="mask62_1837_9549" style="mask-type:luminance" maskUnits="userSpaceOnUse" x="247" y="218" width="18" height="19">
<path d="M247.222 218.038H264.693V236.181H247.222V218.038Z" fill="white"/>
</mask>
<g mask="url(#mask62_1837_9549)">
<mask id="mask63_1837_9549" style="mask-type:luminance" maskUnits="userSpaceOnUse" x="192" y="202" width="93" height="93">
<path d="M192.404 239.795L248.551 202.767L284.875 257.92L228.726 294.95L192.404 239.795Z" fill="white"/>
</mask>
<g mask="url(#mask63_1837_9549)">
<mask id="mask64_1837_9549" style="mask-type:luminance" maskUnits="userSpaceOnUse" x="192" y="202" width="93" height="93">
<path d="M192.404 239.795L248.551 202.767L284.875 257.92L228.726 294.95L192.404 239.795Z" fill="white"/>
</mask>
<g mask="url(#mask64_1837_9549)">
<path d="M251.291 218.815C249.82 219.337 248.696 220.631 248.043 222.566C247 225.659 247.412 229.809 248.999 232.222C250.169 233.997 251.628 235.164 253.339 235.695C254.06 235.915 254.798 236.014 255.551 235.995C256.305 235.976 257.037 235.838 257.746 235.581C259.169 235.214 260.499 234.636 261.738 233.846C262.822 233.131 263.835 232.164 264.341 230.894C265.019 229.201 264.665 227.301 263.305 225.236C258.465 217.887 255.575 217.31 251.291 218.815ZM263.475 230.551C262.293 233.521 257.552 234.668 257.505 234.678L257.45 234.694C256.366 235.089 252.628 236.029 249.781 231.707C248.34 229.518 247.968 225.71 248.927 222.865C249.248 221.918 249.83 220.747 250.863 220.066C251.094 219.913 251.34 219.791 251.602 219.698C255.005 218.503 257.602 218.279 262.527 225.756C263.708 227.549 264.026 229.162 263.475 230.551Z" fill="#FFDE59"/>
</g>
</g>
</g>
<mask id="mask65_1837_9549" style="mask-type:luminance" maskUnits="userSpaceOnUse" x="209" y="225" width="19" height="21">
<path d="M209.645 225.955H227.774V245.747H209.645V225.955Z" fill="white"/>
</mask>
<g mask="url(#mask65_1837_9549)">
<mask id="mask66_1837_9549" style="mask-type:luminance" maskUnits="userSpaceOnUse" x="192" y="202" width="93" height="93">
<path d="M192.403 239.795L248.551 202.767L284.875 257.92L228.726 294.95L192.403 239.795Z" fill="white"/>
</mask>
<g mask="url(#mask66_1837_9549)">
<mask id="mask67_1837_9549" style="mask-type:luminance" maskUnits="userSpaceOnUse" x="192" y="202" width="93" height="93">
<path d="M192.403 239.795L248.551 202.767L284.875 257.92L228.726 294.95L192.403 239.795Z" fill="white"/>
</mask>
<g mask="url(#mask67_1837_9549)">
<path d="M218.834 245.685C220.2 245.718 221.484 245.169 222.571 244.454C223.784 243.626 224.84 242.631 225.737 241.469C226.252 240.916 226.667 240.297 226.981 239.612C227.297 238.926 227.496 238.207 227.578 237.457C227.766 235.677 227.268 233.873 226.102 232.1C224.232 229.261 219.286 226.415 215.727 226.129C214.044 225.994 212.7 226.412 211.845 227.344C208.666 230.804 209.325 235.335 214.044 242.502C215.403 244.566 217.015 245.638 218.834 245.685ZM212.534 227.977C212.676 227.822 212.835 227.687 213.012 227.572C213.661 227.144 214.547 226.973 215.65 227.06C219.224 227.348 223.783 230.282 225.319 232.614C228.164 236.934 225.822 240.007 225.035 240.845L225.001 240.888C224.971 240.926 222.048 244.837 218.857 244.751C217.363 244.711 216.007 243.78 214.826 241.988C211.694 237.233 208.974 231.852 212.534 227.977Z" fill="#FFDE59"/>
</g>
</g>
</g>
<mask id="mask68_1837_9549" style="mask-type:luminance" maskUnits="userSpaceOnUse" x="226" y="215" width="18" height="20">
<path d="M226.126 215.069H243.926V234.531H226.126V215.069Z" fill="white"/>
</mask>
<g mask="url(#mask68_1837_9549)">
<mask id="mask69_1837_9549" style="mask-type:luminance" maskUnits="userSpaceOnUse" x="192" y="202" width="93" height="93">
<path d="M192.403 239.795L248.551 202.767L284.875 257.92L228.726 294.95L192.403 239.795Z" fill="white"/>
</mask>
<g mask="url(#mask69_1837_9549)">
<mask id="mask70_1837_9549" style="mask-type:luminance" maskUnits="userSpaceOnUse" x="192" y="202" width="93" height="93">
<path d="M192.403 239.795L248.551 202.767L284.875 257.92L228.726 294.95L192.403 239.795Z" fill="white"/>
</mask>
<g mask="url(#mask70_1837_9549)">
<path d="M236.985 234.047C238.406 233.68 239.736 233.101 240.975 232.312C242.06 231.596 243.074 230.63 243.58 229.36C244.257 227.667 243.902 225.767 242.543 223.704C237.823 216.537 233.92 214.142 229.489 215.702C228.297 216.121 227.38 217.19 226.843 218.793C225.708 222.174 226.367 227.852 228.235 230.688C230.791 234.562 234.423 234.964 236.985 234.047ZM227.733 219.09C228.088 218.039 228.596 217.295 229.245 216.866C229.42 216.75 229.608 216.657 229.806 216.589C232.59 215.609 236.185 215.745 241.768 224.222C242.947 226.013 243.267 227.627 242.713 229.016C241.531 231.985 236.791 233.131 236.744 233.142L236.691 233.159C235.607 233.553 231.866 234.494 229.021 230.172C227.483 227.839 226.587 222.489 227.733 219.09Z" fill="#FFDE59"/>
</g>
</g>
</g>
</g>
</g>
<mask id="mask71_1837_9549" style="mask-type:luminance" maskUnits="userSpaceOnUse" x="-27" y="-48" width="321" height="571">
<path d="M293.7 -47.5H-26.7V522.5H293.7V-47.5Z" fill="black" fill-opacity="0.5"/>
</mask>
<g mask="url(#mask71_1837_9549)">
<mask id="mask72_1837_9549" style="mask-type:luminance" maskUnits="userSpaceOnUse" x="84" y="326" width="61" height="60">
<path d="M144.378 326.233H84.7148V385.608H144.378V326.233Z" fill="white"/>
</mask>
<g mask="url(#mask72_1837_9549)">
<mask id="mask73_1837_9549" style="mask-type:luminance" maskUnits="userSpaceOnUse" x="93" y="350" width="32" height="31">
<path d="M93.2852 350.972H124.6V380.33H93.2852V350.972Z" fill="white"/>
</mask>
<g mask="url(#mask73_1837_9549)">
<mask id="mask74_1837_9549" style="mask-type:luminance" maskUnits="userSpaceOnUse" x="84" y="326" width="61" height="60">
<path d="M99.6099 326.306L144.339 341.449L129.525 385.271L84.7959 370.13L99.6099 326.306Z" fill="white"/>
</mask>
<g mask="url(#mask74_1837_9549)">
<mask id="mask75_1837_9549" style="mask-type:luminance" maskUnits="userSpaceOnUse" x="84" y="326" width="61" height="60">
<path d="M99.6099 326.306L144.339 341.449L129.525 385.271L84.7959 370.13L99.6099 326.306Z" fill="white"/>
</mask>
<g mask="url(#mask75_1837_9549)">
<path d="M119.391 354.879C119.366 354.843 119.336 354.813 119.299 354.79C119.263 354.766 119.223 354.75 119.18 354.742C119.138 354.733 119.094 354.735 119.052 354.744C119.009 354.753 118.97 354.769 118.934 354.794C118.898 354.818 118.869 354.848 118.844 354.885C118.821 354.922 118.806 354.961 118.798 355.004C118.789 355.047 118.79 355.089 118.799 355.132C118.808 355.174 118.825 355.214 118.849 355.25C120.127 357.09 121.165 359.055 121.963 361.146C122.761 363.238 123.297 365.393 123.57 367.615C124.072 371.786 123.45 375.387 121.868 377.502C120.415 379.44 118.231 379.986 115.554 379.08C112.535 378.057 110 376.187 108.416 373.813L108.294 373.626C108.928 373.261 109.523 372.84 110.079 372.363C111.725 370.937 112.539 369.341 112.254 368.098C112.115 367.487 111.641 366.675 110.182 366.276C108.303 365.761 106.885 366.42 106.393 368.046C105.949 369.495 106.331 371.478 107.386 373.376C104.834 374.668 101.509 375.218 98.3106 373.999C96.0856 373.15 94.7658 371.82 94.3898 370.042C93.5143 365.909 97.8394 359.84 102.19 355.541C104.605 353.151 107.41 351.884 110.53 351.774C112.863 351.691 114.506 352.324 114.526 352.332C114.565 352.348 114.608 352.356 114.652 352.355C114.696 352.355 114.737 352.346 114.777 352.328C114.817 352.311 114.853 352.287 114.882 352.256C114.913 352.225 114.936 352.189 114.952 352.147C114.967 352.107 114.975 352.065 114.975 352.022C114.974 351.979 114.965 351.936 114.948 351.896C114.93 351.856 114.905 351.821 114.875 351.792C114.844 351.761 114.808 351.738 114.766 351.722C114.694 351.698 113 351.035 110.531 351.119C108.261 351.193 104.89 351.939 101.72 355.075C99.5519 357.223 92.5692 364.652 93.7422 370.178C94.1735 372.185 95.626 373.673 98.0711 374.608C98.2051 374.653 98.3325 374.704 98.4652 374.749C101.74 375.857 105.114 375.26 107.715 373.935C107.764 374.015 107.816 374.093 107.869 374.171C109.531 376.672 112.187 378.629 115.345 379.697C119.099 380.969 121.251 379.416 122.393 377.891C124.077 375.645 124.744 371.869 124.223 367.535C123.943 365.262 123.395 363.056 122.577 360.914C121.759 358.774 120.698 356.763 119.391 354.879ZM107.955 373.065C107.54 372.333 107.233 371.559 107.033 370.743C106.809 369.794 106.804 368.929 107.011 368.245C107.402 366.964 108.466 366.492 110.005 366.915C110.09 366.938 110.17 366.963 110.247 366.989C111.021 367.251 111.478 367.674 111.61 368.251C111.832 369.237 111.085 370.629 109.643 371.876C109.119 372.326 108.556 372.722 107.955 373.065Z" fill="#FFDE59"/>
</g>
</g>
</g>
<mask id="mask76_1837_9549" style="mask-type:luminance" maskUnits="userSpaceOnUse" x="92" y="337" width="14" height="14">
<path d="M92.9556 337.448H105.152V350.313H92.9556V337.448Z" fill="white"/>
</mask>
<g mask="url(#mask76_1837_9549)">
<mask id="mask77_1837_9549" style="mask-type:luminance" maskUnits="userSpaceOnUse" x="84" y="326" width="61" height="60">
<path d="M99.6099 326.306L144.339 341.449L129.525 385.271L84.7959 370.13L99.6099 326.306Z" fill="white"/>
</mask>
<g mask="url(#mask77_1837_9549)">
<mask id="mask78_1837_9549" style="mask-type:luminance" maskUnits="userSpaceOnUse" x="84" y="326" width="61" height="60">
<path d="M99.6099 326.306L144.339 341.449L129.525 385.271L84.7959 370.13L99.6099 326.306Z" fill="white"/>
</mask>
<g mask="url(#mask78_1837_9549)">
<path d="M102.242 349.475C103.308 348.811 104.091 347.761 104.567 346.352C105.215 344.436 104.754 341.549 103.493 339.637C102.705 338.441 101.71 337.761 100.617 337.671C97.4403 337.411 95.581 338.314 93.6058 344.157C93.0521 345.798 93.15 347.148 93.9123 348.176C94.484 348.948 95.3415 349.422 96.2068 349.715C97.188 350.03 98.1949 350.186 99.225 350.184C99.7529 350.23 100.276 350.194 100.792 350.073C101.307 349.952 101.791 349.752 102.242 349.475ZM99.27 349.525C99.2584 349.521 99.2469 349.517 99.2314 349.525C99.1966 349.525 95.7729 349.588 94.4428 347.786C93.8196 346.942 93.7474 345.792 94.229 344.367C96.2377 338.426 98.0404 338.118 100.564 338.324C100.757 338.341 100.947 338.381 101.131 338.443C101.953 338.721 102.559 339.412 102.945 339.997C104.104 341.755 104.534 344.397 103.944 346.142C102.784 349.575 100.075 349.596 99.27 349.525Z" fill="#FFDE59"/>
</g>
</g>
</g>
<mask id="mask79_1837_9549" style="mask-type:luminance" maskUnits="userSpaceOnUse" x="127" y="349" width="13" height="14">
<path d="M127.567 349.323H139.433V362.517H127.567V349.323Z" fill="white"/>
</mask>
<g mask="url(#mask79_1837_9549)">
<mask id="mask80_1837_9549" style="mask-type:luminance" maskUnits="userSpaceOnUse" x="84" y="326" width="61" height="60">
<path d="M99.6099 326.306L144.339 341.449L129.525 385.271L84.7959 370.13L99.6099 326.306Z" fill="white"/>
</mask>
<g mask="url(#mask80_1837_9549)">
<mask id="mask81_1837_9549" style="mask-type:luminance" maskUnits="userSpaceOnUse" x="84" y="326" width="61" height="60">
<path d="M99.6099 326.306L144.339 341.449L129.525 385.271L84.7959 370.13L99.6099 326.306Z" fill="white"/>
</mask>
<g mask="url(#mask81_1837_9549)">
<path d="M136.647 349.868C135.722 349.278 134.521 349.212 133.169 349.682C131.008 350.436 128.89 352.45 128.243 354.366C127.766 355.776 127.751 357.086 128.195 358.261C128.385 358.755 128.649 359.206 128.985 359.614C129.322 360.024 129.714 360.369 130.162 360.652C130.979 361.28 131.874 361.767 132.846 362.114C133.71 362.407 134.682 362.551 135.603 362.284C136.832 361.931 137.73 360.918 138.283 359.277C140.257 353.437 139.329 351.591 136.647 349.868ZM135.418 361.657C133.266 362.28 130.583 360.15 130.558 360.13L130.525 360.105C129.838 359.675 127.704 358.011 128.866 354.577C129.453 352.838 131.398 350.995 133.385 350.302C134.047 350.072 134.947 349.89 135.77 350.168C135.954 350.231 136.128 350.315 136.293 350.419C138.422 351.788 139.669 353.129 137.66 359.071C137.179 360.494 136.424 361.365 135.418 361.657Z" fill="#FFDE59"/>
</g>
</g>
</g>
<mask id="mask82_1837_9549" style="mask-type:luminance" maskUnits="userSpaceOnUse" x="106" y="331" width="13" height="15">
<path d="M106.8 331.51H118.996V345.694H106.8V331.51Z" fill="white"/>
</mask>
<g mask="url(#mask82_1837_9549)">
<mask id="mask83_1837_9549" style="mask-type:luminance" maskUnits="userSpaceOnUse" x="84" y="326" width="61" height="60">
<path d="M99.6099 326.306L144.339 341.449L129.525 385.271L84.7959 370.13L99.6099 326.306Z" fill="white"/>
</mask>
<g mask="url(#mask83_1837_9549)">
<mask id="mask84_1837_9549" style="mask-type:luminance" maskUnits="userSpaceOnUse" x="84" y="326" width="61" height="60">
<path d="M99.6099 326.306L144.339 341.449L129.525 385.271L84.7959 370.13L99.6099 326.306Z" fill="white"/>
</mask>
<g mask="url(#mask84_1837_9549)">
<path d="M107.77 343.465C108.341 344.236 109.199 344.711 110.064 345.004C111.045 345.318 112.052 345.474 113.082 345.472C113.61 345.519 114.132 345.482 114.647 345.362C115.162 345.241 115.645 345.042 116.095 344.765C117.161 344.103 117.944 343.052 118.421 341.643C119.183 339.387 118.622 335.426 117.243 333.335C116.59 332.345 115.779 331.781 114.894 331.709C111.608 331.438 109.386 333.752 107.461 339.446C106.906 341.085 107.01 342.438 107.77 343.465ZM114.841 332.362C114.988 332.374 115.131 332.405 115.271 332.452C115.789 332.628 116.265 333.044 116.694 333.693C118.078 335.793 118.425 339.578 117.799 341.431C116.637 344.865 113.927 344.889 113.123 344.816L113.086 344.814C113.051 344.814 109.626 344.879 108.296 343.076C107.673 342.232 107.601 341.082 108.082 339.658C109.36 335.88 111.16 332.059 114.841 332.362Z" fill="#FFDE59"/>
</g>
</g>
</g>
<mask id="mask85_1837_9549" style="mask-type:luminance" maskUnits="userSpaceOnUse" x="119" y="335" width="13" height="16">
<path d="M119.656 335.799H131.522V350.313H119.656V335.799Z" fill="white"/>
</mask>
<g mask="url(#mask85_1837_9549)">
<mask id="mask86_1837_9549" style="mask-type:luminance" maskUnits="userSpaceOnUse" x="84" y="326" width="61" height="60">
<path d="M99.6099 326.306L144.339 341.449L129.525 385.271L84.7959 370.13L99.6099 326.306Z" fill="white"/>
</mask>
<g mask="url(#mask86_1837_9549)">
<mask id="mask87_1837_9549" style="mask-type:luminance" maskUnits="userSpaceOnUse" x="84" y="326" width="61" height="60">
<path d="M99.6099 326.306L144.339 341.449L129.525 385.271L84.7959 370.13L99.6099 326.306Z" fill="white"/>
</mask>
<g mask="url(#mask87_1837_9549)">
<path d="M122.044 348.502C122.862 349.131 123.755 349.619 124.727 349.965C125.593 350.257 126.563 350.403 127.484 350.136C128.713 349.783 129.61 348.769 130.165 347.129C132.09 341.435 131.728 338.246 128.952 336.465C128.205 335.985 127.219 335.938 126.1 336.329C123.74 337.157 120.885 339.963 120.123 342.217C119.084 345.296 120.431 347.48 122.044 348.502ZM126.32 336.951C127.054 336.694 127.685 336.655 128.203 336.831C128.343 336.877 128.474 336.94 128.599 337.021C130.343 338.14 131.821 340.189 129.543 346.924C129.063 348.346 128.307 349.217 127.3 349.51C125.147 350.132 122.468 348.002 122.441 347.98L122.408 347.958C121.722 347.528 119.587 345.863 120.747 342.429C121.374 340.575 123.946 337.778 126.32 336.951Z" fill="#FFDE59"/>
</g>
</g>
</g>
</g>
</g>
<mask id="mask88_1837_9549" style="mask-type:luminance" maskUnits="userSpaceOnUse" x="-27" y="-48" width="321" height="571">
<path d="M293.7 -47.5H-26.7V522.5H293.7V-47.5Z" fill="black" fill-opacity="0.5"/>
</mask>
<g mask="url(#mask88_1837_9549)">
<mask id="mask89_1837_9549" style="mask-type:luminance" maskUnits="userSpaceOnUse" x="13" y="396" width="155" height="79">
<path d="M167.122 396.163H13.5149V475H167.122V396.163Z" fill="white"/>
</mask>
<g mask="url(#mask89_1837_9549)">
<mask id="mask90_1837_9549" style="mask-type:luminance" maskUnits="userSpaceOnUse" x="63" y="462" width="79" height="13">
<path d="M63.6187 462.795H141.411V475H63.6187V462.795Z" fill="white"/>
</mask>
<g mask="url(#mask90_1837_9549)">
<mask id="mask91_1837_9549" style="mask-type:luminance" maskUnits="userSpaceOnUse" x="13" y="396" width="155" height="153">
<path d="M13.5625 439.302L124.681 396.235L167.003 505.587L55.8839 548.652L13.5625 439.302Z" fill="white"/>
</mask>
<g mask="url(#mask91_1837_9549)">
<mask id="mask92_1837_9549" style="mask-type:luminance" maskUnits="userSpaceOnUse" x="13" y="396" width="155" height="153">
<path d="M13.5625 439.302L124.681 396.235L167.003 505.587L55.8839 548.652L13.5625 439.302Z" fill="white"/>
</mask>
<g mask="url(#mask92_1837_9549)">
<path d="M98.1435 462.849C98.0379 462.82 97.931 462.811 97.8216 462.824C97.7121 462.836 97.6104 462.87 97.5139 462.924C97.4186 462.978 97.3362 463.048 97.2679 463.134C97.201 463.22 97.152 463.317 97.1224 463.424C97.0915 463.53 97.0838 463.637 97.0967 463.746C97.1095 463.856 97.143 463.959 97.1971 464.055C97.2512 464.151 97.3207 464.233 97.4083 464.301C97.4945 464.37 97.5898 464.419 97.6967 464.448C100.412 465.201 103.074 466.116 105.68 467.192C108.287 468.268 110.819 469.497 113.277 470.881C115.735 472.264 118.1 473.791 120.373 475.461C122.647 477.133 124.811 478.934 126.866 480.867C134.595 488.173 139.227 496.194 139.588 502.877C139.916 509.008 136.574 513.612 129.926 516.189C122.424 519.096 114.483 519.567 107.571 517.512L107.032 517.347C107.671 515.608 108.142 513.822 108.444 511.992C109.319 506.546 108.311 502.121 105.746 500.16C104.488 499.196 102.254 498.387 98.7822 499.974C94.3064 502.019 92.6325 505.605 94.3154 509.566C95.8026 513.105 99.753 516.347 104.871 518.334C102.023 524.988 96.4812 531.453 88.3126 534.266C82.6303 536.223 77.9215 535.773 74.3136 532.919C65.9222 526.295 64.462 507.463 65.9209 492.037C66.7218 483.467 70.1005 476.448 75.9617 471.176C80.3435 467.228 84.5489 465.797 84.5991 465.782C84.7034 465.747 84.7974 465.693 84.8811 465.621C84.9648 465.55 85.0304 465.464 85.0806 465.366C85.1296 465.267 85.1579 465.163 85.1656 465.053C85.1746 464.943 85.1605 464.835 85.1257 464.731C85.0922 464.626 85.0381 464.532 84.966 464.448C84.8939 464.365 84.809 464.298 84.7111 464.249C84.6119 464.2 84.5076 464.17 84.3982 464.162C84.2888 464.153 84.1819 464.167 84.0776 464.202C83.8973 464.272 79.5439 465.73 74.9007 469.896C70.6272 473.721 65.3119 480.642 64.256 491.89C63.5375 499.588 62.0581 525.379 73.2796 534.232C77.3665 537.443 82.5865 537.985 88.8366 535.838C89.1675 535.71 89.4984 535.603 89.8268 535.475C97.9619 532.322 103.527 525.685 106.415 518.888C106.639 518.962 106.866 519.034 107.094 519.098C114.365 521.271 122.678 520.772 130.519 517.734C139.846 514.118 141.498 507.609 141.237 502.783C140.858 495.681 136.033 487.249 128.001 479.654C125.897 477.675 123.681 475.831 121.354 474.121C119.027 472.411 116.607 470.848 114.091 469.434C111.575 468.018 108.984 466.759 106.316 465.657C103.648 464.555 100.925 463.62 98.1435 462.849ZM105.47 516.805C103.482 516.054 101.632 515.045 99.9217 513.779C97.9529 512.294 96.5404 510.621 95.8335 508.949C94.5163 505.823 95.8116 503.179 99.4749 501.506C99.6758 501.413 99.8715 501.331 100.061 501.257C101.984 500.513 103.557 500.594 104.746 501.502C106.773 503.061 107.579 506.984 106.81 511.751C106.525 513.479 106.078 515.163 105.47 516.805Z" fill="#FFDE59"/>
</g>
</g>
</g>
<mask id="mask93_1837_9549" style="mask-type:luminance" maskUnits="userSpaceOnUse" x="27" y="458" width="31" height="17">
<path d="M27.3594 458.177H57.026V475H27.3594V458.177Z" fill="white"/>
</mask>
<g mask="url(#mask93_1837_9549)">
<mask id="mask94_1837_9549" style="mask-type:luminance" maskUnits="userSpaceOnUse" x="13" y="396" width="155" height="153">
<path d="M13.5625 439.302L124.681 396.235L167.003 505.587L55.8839 548.652L13.5625 439.302Z" fill="white"/>
</mask>
<g mask="url(#mask94_1837_9549)">
<mask id="mask95_1837_9549" style="mask-type:luminance" maskUnits="userSpaceOnUse" x="13" y="396" width="155" height="153">
<path d="M13.5625 439.302L124.681 396.235L167.003 505.587L55.8839 548.652L13.5625 439.302Z" fill="white"/>
</mask>
<g mask="url(#mask95_1837_9549)">
<path d="M56.1929 480.141C57.1818 477.121 56.9951 473.807 55.6328 470.289C53.7825 465.506 48.2136 460.636 42.6768 458.957C39.2131 457.908 36.1847 458.196 33.9223 459.794C27.3529 464.439 25.2168 469.213 30.8604 483.793C32.4441 487.888 34.8224 490.355 37.9629 491.121C40.3205 491.697 42.7489 491.229 44.898 490.397C47.3097 489.419 49.5102 488.09 51.4996 486.412C52.5992 485.648 53.5507 484.73 54.3529 483.658C55.1551 482.586 55.7693 481.413 56.1929 480.141ZM50.521 485.059C50.4939 485.07 50.463 485.081 50.445 485.12C50.3793 485.178 43.8524 490.855 38.3582 489.502C35.7842 488.871 33.782 486.749 32.4068 483.194C26.6692 468.369 29.6603 464.843 34.8777 461.152C35.2808 460.87 35.7108 460.641 36.1692 460.463C38.2127 459.67 40.502 460.035 42.1978 460.547C47.2903 462.092 52.4022 466.536 54.0864 470.888C57.4033 479.458 52.1923 483.891 50.521 485.059Z" fill="#FFDE59"/>
</g>
</g>
</g>
<mask id="mask96_1837_9549" style="mask-type:luminance" maskUnits="userSpaceOnUse" x="113" y="424" width="31" height="33">
<path d="M113.393 424.861H143.059V456.858H113.393V424.861Z" fill="white"/>
</mask>
<g mask="url(#mask96_1837_9549)">
<mask id="mask97_1837_9549" style="mask-type:luminance" maskUnits="userSpaceOnUse" x="13" y="396" width="155" height="153">
<path d="M13.5627 439.302L124.681 396.235L167.003 505.587L55.8841 548.652L13.5627 439.302Z" fill="white"/>
</mask>
<g mask="url(#mask97_1837_9549)">
<mask id="mask98_1837_9549" style="mask-type:luminance" maskUnits="userSpaceOnUse" x="13" y="396" width="155" height="153">
<path d="M13.5627 439.302L124.681 396.235L167.003 505.587L55.8841 548.652L13.5627 439.302Z" fill="white"/>
</mask>
<g mask="url(#mask98_1837_9549)">
<path d="M123.428 425.105C120.685 425.455 118.252 427.275 116.397 430.385C113.435 435.357 112.597 442.711 114.449 447.494C115.81 451.012 117.902 453.587 120.667 455.154C121.834 455.806 123.076 456.259 124.389 456.508C125.702 456.758 127.021 456.796 128.346 456.619C130.947 456.517 133.469 456.015 135.911 455.113C138.057 454.281 140.173 452.987 141.523 450.973C143.331 448.292 143.426 444.864 141.843 440.769C136.203 426.199 131.412 424.11 123.428 425.105ZM140.149 450.052C136.992 454.757 128.351 454.96 128.266 454.96L128.166 454.967C126.139 455.243 119.312 455.465 115.995 446.895C114.315 442.555 115.095 435.812 117.82 431.238C118.727 429.718 120.175 427.906 122.218 427.113C122.677 426.936 123.149 426.816 123.637 426.753C129.977 425.963 134.562 426.553 140.3 441.379C141.675 444.934 141.624 447.851 140.149 450.052Z" fill="#FFDE59"/>
</g>
</g>
</g>
<mask id="mask99_1837_9549" style="mask-type:luminance" maskUnits="userSpaceOnUse" x="46" y="423" width="31" height="37">
<path d="M46.1482 423.542H76.1445V459.826H46.1482V423.542Z" fill="white"/>
</mask>
<g mask="url(#mask99_1837_9549)">
<mask id="mask100_1837_9549" style="mask-type:luminance" maskUnits="userSpaceOnUse" x="13" y="396" width="155" height="153">
<path d="M13.5625 439.302L124.681 396.235L167.003 505.587L55.8839 548.652L13.5625 439.302Z" fill="white"/>
</mask>
<g mask="url(#mask100_1837_9549)">
<mask id="mask101_1837_9549" style="mask-type:luminance" maskUnits="userSpaceOnUse" x="13" y="396" width="155" height="153">
<path d="M13.5625 439.302L124.681 396.235L167.003 505.587L55.8839 548.652L13.5625 439.302Z" fill="white"/>
</mask>
<g mask="url(#mask101_1837_9549)">
<path d="M57.1561 459.476C59.5112 460.049 61.9409 459.582 64.0899 458.749C66.5003 457.77 68.7009 456.441 70.6915 454.765C71.7899 454.001 72.7388 453.085 73.541 452.013C74.3432 450.942 74.9561 449.772 75.3797 448.503C76.3712 445.485 76.1819 442.167 74.8222 438.653C72.6436 433.024 65.1393 426.223 59.0798 424.387C56.2162 423.519 53.7298 423.738 51.9014 425.03C45.1002 429.834 44.5478 437.942 50.0472 452.151C51.6297 456.242 54.0208 458.709 57.1561 459.476ZM52.8568 426.389C53.1606 426.173 53.4877 425.999 53.8354 425.867C55.1217 425.369 56.7183 425.405 58.5995 425.974C64.6835 427.818 71.4847 434.624 73.2745 439.249C76.5901 447.816 71.383 452.262 69.7091 453.42L69.6318 453.479C69.5649 453.536 63.0405 459.216 57.545 457.864C54.9723 457.231 52.9688 455.107 51.5936 451.555C47.9445 442.126 45.2405 431.768 52.8568 426.389Z" fill="#FFDE59"/>
</g>
</g>
</g>
<mask id="mask102_1837_9549" style="mask-type:luminance" maskUnits="userSpaceOnUse" x="77" y="411" width="31" height="36">
<path d="M77.7927 411.337H107.789V446.302H77.7927V411.337Z" fill="white"/>
</mask>
<g mask="url(#mask102_1837_9549)">
<mask id="mask103_1837_9549" style="mask-type:luminance" maskUnits="userSpaceOnUse" x="13" y="396" width="155" height="153">
<path d="M13.5625 439.302L124.681 396.235L167.003 505.587L55.8839 548.652L13.5625 439.302Z" fill="white"/>
</mask>
<g mask="url(#mask103_1837_9549)">
<mask id="mask104_1837_9549" style="mask-type:luminance" maskUnits="userSpaceOnUse" x="13" y="396" width="155" height="153">
<path d="M13.5625 439.302L124.681 396.235L167.003 505.587L55.8839 548.652L13.5625 439.302Z" fill="white"/>
</mask>
<g mask="url(#mask104_1837_9549)">
<path d="M92.9504 446.131C95.5501 446.029 98.0712 445.528 100.511 444.626C102.66 443.793 104.777 442.498 106.127 440.49C107.933 437.807 108.028 434.377 106.445 430.286C100.945 416.077 95.0775 410.453 86.8201 411.49C84.5976 411.767 82.6096 413.275 81.0799 415.853C77.8492 421.289 76.8707 431.386 79.0467 437.008C82.0263 444.69 88.1708 446.757 92.9504 446.131ZM82.5104 416.704C83.5186 415.016 84.6749 413.915 85.9612 413.416C86.3089 413.28 86.6668 413.19 87.0364 413.146C92.2268 412.495 98.4035 414.087 104.908 430.893C106.282 434.444 106.232 437.365 104.755 439.567C101.597 444.27 92.9581 444.47 92.8706 444.472L92.774 444.481C90.7473 444.757 83.9152 444.978 80.5996 436.41C78.8098 431.782 79.2553 422.167 82.5104 416.704Z" fill="#FFDE59"/>
</g>
</g>
</g>
</g>
</g>
<mask id="mask105_1837_9549" style="mask-type:luminance" maskUnits="userSpaceOnUse" x="-27" y="-48" width="321" height="571">
<path d="M293.7 -47.5H-26.7V522.5H293.7V-47.5Z" fill="black" fill-opacity="0.5"/>
</mask>
<g mask="url(#mask105_1837_9549)">
<mask id="mask106_1837_9549" style="mask-type:luminance" maskUnits="userSpaceOnUse" x="128" y="15" width="33" height="33">
<path d="M160.53 15.8333H128.556V47.1702H160.53V15.8333Z" fill="white"/>
</mask>
<g mask="url(#mask106_1837_9549)">
<mask id="mask107_1837_9549" style="mask-type:luminance" maskUnits="userSpaceOnUse" x="133" y="18" width="24" height="27">
<path d="M133.5 18.8021H156.574V44.8611H133.5V18.8021Z" fill="white"/>
</mask>
<g mask="url(#mask107_1837_9549)">
<mask id="mask108_1837_9549" style="mask-type:luminance" maskUnits="userSpaceOnUse" x="128" y="15" width="33" height="33">
<path d="M138.041 15.7303L160.423 26.2394L150.549 47.2926L128.169 36.7821L138.041 15.7303Z" fill="white"/>
</mask>
<g mask="url(#mask108_1837_9549)">
<mask id="mask109_1837_9549" style="mask-type:luminance" maskUnits="userSpaceOnUse" x="128" y="15" width="33" height="33">
<path d="M138.041 15.7303L160.423 26.2394L150.549 47.2926L128.169 36.7821L138.041 15.7303Z" fill="white"/>
</mask>
<g mask="url(#mask109_1837_9549)">
<path d="M153.17 22.8596C153.123 22.8377 153.076 22.8184 153.027 22.8004C151.026 22.2489 149.092 23.7229 148.136 25.3761C147.187 26.8373 146.936 29.1695 148.493 30.3279C148.721 30.4928 148.99 30.5933 149.265 30.641C151.662 30.9219 153.737 28.9105 154.388 26.7432C154.914 25.3942 154.592 23.5052 153.17 22.8596ZM145.276 19.2544C144.111 18.7415 142.668 19.485 141.972 20.4939C140.57 22.4821 140.296 25.6416 142.242 27.3927C142.432 27.5383 142.65 27.6465 142.879 27.7135C144.531 28.1786 145.982 26.7716 146.567 25.3594C147.375 23.5142 147.414 20.9591 145.755 19.5546C145.603 19.427 145.443 19.3278 145.276 19.2544ZM155.259 31.4592C153.212 30.6423 150.916 31.9836 149.854 33.7425C148.964 34.9537 148.841 37.0746 150.319 37.898C152.461 38.8721 154.979 37.2859 155.955 35.3609C156.695 34.1329 156.667 32.2078 155.259 31.4592ZM137.614 23.7088C136.769 23.3042 135.698 23.4189 135.018 24.1482C133.201 26.099 133.321 29.7055 135.536 31.3355C136.473 31.9875 137.734 31.628 138.428 30.8085C139.905 29.0523 139.897 26.2046 138.464 24.42C138.24 24.1069 137.943 23.8685 137.614 23.7101V23.7088ZM144.613 32.0249C142.95 31.2479 140.868 31.2956 139.205 32.0416C137.359 32.9552 135.61 34.2051 134.374 35.8711C133.3 36.9844 133.611 38.9906 135.028 39.6671C136.715 40.5175 138.733 40.0369 140.474 40.7482C142.019 41.2069 142.959 42.5611 144.026 43.6589C144.909 44.6485 146.519 45.1845 147.638 44.2645C148.647 43.2659 148.598 41.672 148.561 40.3461C148.275 38.0874 147.951 35.7036 146.653 33.7682C146.138 32.981 145.426 32.405 144.613 32.0249Z" fill="#FFDE59"/>
</g>
</g>
</g>
</g>
</g>
<mask id="mask110_1837_9549" style="mask-type:luminance" maskUnits="userSpaceOnUse" x="-27" y="-48" width="321" height="571">
<path d="M293.7 -47.5H-26.7V522.5H293.7V-47.5Z" fill="black" fill-opacity="0.5"/>
</mask>
<g mask="url(#mask110_1837_9549)">
<mask id="mask111_1837_9549" style="mask-type:luminance" maskUnits="userSpaceOnUse" x="238" y="390" width="28" height="29">
<path d="M265.682 390.885H238.322V418.264H265.682V390.885Z" fill="white"/>
</mask>
<g mask="url(#mask111_1837_9549)">
<mask id="mask112_1837_9549" style="mask-type:luminance" maskUnits="userSpaceOnUse" x="242" y="393" width="21" height="24">
<path d="M242.607 393.854H262.385V416.285H242.607V393.854Z" fill="white"/>
</mask>
<g mask="url(#mask112_1837_9549)">
<mask id="mask113_1837_9549" style="mask-type:luminance" maskUnits="userSpaceOnUse" x="237" y="390" width="29" height="29">
<path d="M246.437 390.973L265.684 400.012L257.177 418.153L237.929 409.114L246.437 390.973Z" fill="white"/>
</mask>
<g mask="url(#mask113_1837_9549)">
<mask id="mask114_1837_9549" style="mask-type:luminance" maskUnits="userSpaceOnUse" x="237" y="390" width="29" height="29">
<path d="M246.437 390.973L265.684 400.012L257.177 418.153L237.929 409.114L246.437 390.973Z" fill="white"/>
</mask>
<g mask="url(#mask114_1837_9549)">
<path d="M259.447 397.105C259.408 397.087 259.367 397.07 259.325 397.055C257.603 396.581 255.938 397.852 255.115 399.276C254.298 400.535 254.08 402.545 255.419 403.541C255.615 403.683 255.847 403.769 256.084 403.812C258.146 404.052 259.932 402.317 260.494 400.45C260.948 399.287 260.671 397.66 259.447 397.105ZM252.659 394.005C251.655 393.564 250.414 394.205 249.814 395.074C248.606 396.788 248.369 399.509 250.042 401.017C250.206 401.142 250.392 401.235 250.591 401.293C252.011 401.692 253.261 400.478 253.765 399.262C254.461 397.672 254.496 395.471 253.069 394.263C252.939 394.153 252.801 394.068 252.659 394.005ZM261.24 404.513C259.479 403.811 257.503 404.966 256.588 406.482C255.822 407.525 255.714 409.352 256.985 410.061C258.827 410.899 260.995 409.532 261.835 407.873C262.474 406.814 262.451 405.156 261.24 404.513ZM246.062 397.847C245.336 397.498 244.414 397.597 243.829 398.226C242.265 399.908 242.365 403.014 244.27 404.417C245.076 404.979 246.161 404.669 246.757 403.961C248.03 402.447 248.026 399.995 246.793 398.458C246.6 398.189 246.347 397.984 246.062 397.847ZM252.08 405.006C250.65 404.338 248.857 404.38 247.427 405.024C245.837 405.812 244.333 406.889 243.268 408.326C242.343 409.284 242.61 411.012 243.828 411.595C245.279 412.326 247.016 411.911 248.512 412.522C249.841 412.917 250.65 414.083 251.568 415.027C252.328 415.879 253.712 416.34 254.675 415.548C255.544 414.686 255.504 413.313 255.472 412.17C255.227 410.226 254.949 408.173 253.834 406.506C253.391 405.828 252.78 405.332 252.08 405.006Z" fill="#FFDE59"/>
</g>
</g>
</g>
</g>
</g>
<mask id="mask115_1837_9549" style="mask-type:luminance" maskUnits="userSpaceOnUse" x="-27" y="-48" width="321" height="571">
<path d="M293.7 -47.5H-26.7V522.5H293.7V-47.5Z" fill="black" fill-opacity="0.5"/>
</mask>
<g mask="url(#mask115_1837_9549)">
<mask id="mask116_1837_9549" style="mask-type:luminance" maskUnits="userSpaceOnUse" x="3" y="407" width="42" height="42">
<path d="M44.8297 407.708H3.62598V448.611H44.8297V407.708Z" fill="white"/>
</mask>
<g mask="url(#mask116_1837_9549)">
<mask id="mask117_1837_9549" style="mask-type:luminance" maskUnits="userSpaceOnUse" x="9" y="412" width="31" height="33">
<path d="M9.55933 412.656H39.8853V444.653H9.55933V412.656Z" fill="white"/>
</mask>
<g mask="url(#mask117_1837_9549)">
<mask id="mask118_1837_9549" style="mask-type:luminance" maskUnits="userSpaceOnUse" x="3" y="407" width="42" height="43">
<path d="M3.19336 423.69L30.0891 407.963L44.9314 433.382L18.0357 449.108L3.19336 423.69Z" fill="white"/>
</mask>
<g mask="url(#mask118_1837_9549)">
<mask id="mask119_1837_9549" style="mask-type:luminance" maskUnits="userSpaceOnUse" x="3" y="407" width="42" height="43">
<path d="M3.19336 423.69L30.0891 407.963L44.9314 433.382L18.0357 449.108L3.19336 423.69Z" fill="white"/>
</mask>
<g mask="url(#mask119_1837_9549)">
<path d="M21.3991 413.078C21.3437 413.111 21.2896 413.146 21.2368 413.183C19.2346 414.87 19.3878 417.943 20.4244 420.126C21.2665 422.164 23.5133 424.103 25.8272 423.317C26.1607 423.199 26.4568 422.99 26.7041 422.739C28.7063 420.447 28.096 416.841 26.3062 414.605C25.2787 413.085 23.0859 412.062 21.3991 413.078ZM12.0201 418.698C10.6565 419.541 10.399 421.578 10.9514 423.028C12.0175 425.916 15.1078 428.475 18.314 427.711C18.6024 427.617 18.8689 427.469 19.1033 427.278C20.7656 425.895 20.3381 423.37 19.2861 421.747C17.9457 419.578 15.3177 417.7 12.6729 418.416C12.4321 418.482 12.2158 418.577 12.0201 418.698ZM31.8313 417.09C29.5214 418.634 29.2767 421.986 30.348 424.359C30.9725 426.155 33.0881 427.809 34.9989 426.865C37.5406 425.335 37.6874 421.574 36.3831 419.175C35.635 417.52 33.6121 416.165 31.8313 417.09ZM11.1844 429.876C10.1608 430.464 9.51567 431.661 9.78736 432.892C10.52 436.186 14.3558 438.657 17.6302 437.525C18.9771 437.018 19.5024 435.448 19.1445 434.137C18.3732 431.337 15.4078 429.295 12.5287 429.502C12.0445 429.511 11.5849 429.647 11.1844 429.877V429.876ZM24.8241 428.575C22.8283 429.747 21.3926 431.948 20.9819 434.216C20.6136 436.793 20.6664 439.512 21.5175 441.996C21.9077 443.914 24.2151 445.034 25.9289 444.047C28.0161 442.903 28.9574 440.457 30.939 439.159C32.5176 437.88 34.5959 437.876 36.4989 437.556C38.1574 437.348 39.8635 436.058 39.7064 434.233C39.3871 432.463 37.6964 431.368 36.2904 430.453C33.7383 429.127 31.0304 427.749 28.0921 427.707C26.9049 427.677 25.7976 428.003 24.8241 428.575Z" fill="#FFDE59"/>
</g>
</g>
</g>
</g>
</g>
<mask id="mask120_1837_9549" style="mask-type:luminance" maskUnits="userSpaceOnUse" x="-27" y="-48" width="321" height="571">
<path d="M293.7 -47.5H-26.7V522.5H293.7V-47.5Z" fill="black" fill-opacity="0.5"/>
</mask>
<g mask="url(#mask120_1837_9549)">
<mask id="mask121_1837_9549" style="mask-type:luminance" maskUnits="userSpaceOnUse" x="179" y="218" width="21" height="20">
<path d="M199.426 218.038H179.648V237.5H199.426V218.038Z" fill="white"/>
</mask>
<g mask="url(#mask121_1837_9549)">
<mask id="mask122_1837_9549" style="mask-type:luminance" maskUnits="userSpaceOnUse" x="181" y="219" width="17" height="17">
<path d="M181.296 219.688H197.778V235.851H181.296V219.688Z" fill="white"/>
</mask>
<g mask="url(#mask122_1837_9549)">
<mask id="mask123_1837_9549" style="mask-type:luminance" maskUnits="userSpaceOnUse" x="179" y="218" width="21" height="20">
<path d="M183.154 218.154L199.1 221.4L195.857 237.358L179.911 234.112L183.154 218.154Z" fill="white"/>
</mask>
<g mask="url(#mask123_1837_9549)">
<mask id="mask124_1837_9549" style="mask-type:luminance" maskUnits="userSpaceOnUse" x="179" y="218" width="21" height="20">
<path d="M183.154 218.154L199.1 221.4L195.857 237.358L179.911 234.112L183.154 218.154Z" fill="white"/>
</mask>
<g mask="url(#mask124_1837_9549)">
<path d="M197.478 229.378C191.274 229.262 190.2 229.974 187.884 235.733C188 229.525 187.289 228.451 181.533 226.133C187.736 226.249 188.81 225.537 191.127 219.778C191.011 225.985 191.722 227.059 197.478 229.378Z" fill="white"/>
</g>
</g>
</g>
</g>
</g>
<mask id="mask125_1837_9549" style="mask-type:luminance" maskUnits="userSpaceOnUse" x="-27" y="-48" width="321" height="571">
<path d="M293.7 -47.5H-26.7V522.5H293.7V-47.5Z" fill="black" fill-opacity="0.5"/>
</mask>
<g mask="url(#mask125_1837_9549)">
<mask id="mask126_1837_9549" style="mask-type:luminance" maskUnits="userSpaceOnUse" x="192" y="235" width="10" height="10">
<path d="M201.074 235.521H192.833V244.097H201.074V235.521Z" fill="white"/>
</mask>
<g mask="url(#mask126_1837_9549)">
<mask id="mask127_1837_9549" style="mask-type:luminance" maskUnits="userSpaceOnUse" x="193" y="236" width="8" height="8">
<path d="M193.493 236.181H200.415V243.108H193.493V236.181Z" fill="white"/>
</mask>
<g mask="url(#mask127_1837_9549)">
<mask id="mask128_1837_9549" style="mask-type:luminance" maskUnits="userSpaceOnUse" x="192" y="235" width="9" height="9">
<path d="M194.247 235.825L200.828 237.165L199.49 243.751L192.909 242.411L194.247 235.825Z" fill="white"/>
</mask>
<g mask="url(#mask128_1837_9549)">
<mask id="mask129_1837_9549" style="mask-type:luminance" maskUnits="userSpaceOnUse" x="192" y="235" width="9" height="9">
<path d="M194.247 235.825L200.828 237.165L199.49 243.751L192.909 242.411L194.247 235.825Z" fill="white"/>
</mask>
<g mask="url(#mask129_1837_9549)">
<path d="M200.159 240.457C197.599 240.409 197.156 240.703 196.199 243.081C196.247 240.519 195.953 240.074 193.579 239.118C196.139 239.166 196.582 238.872 197.539 236.495C197.491 239.057 197.783 239.501 200.159 240.457Z" fill="white"/>
</g>
</g>
</g>
</g>
</g>
<mask id="mask130_1837_9549" style="mask-type:luminance" maskUnits="userSpaceOnUse" x="-27" y="-48" width="321" height="571">
<path d="M293.7 -47.5H-26.7V522.5H293.7V-47.5Z" fill="black" fill-opacity="0.5"/>
</mask>
<g mask="url(#mask130_1837_9549)">
<mask id="mask131_1837_9549" style="mask-type:luminance" maskUnits="userSpaceOnUse" x="251" y="440" width="16" height="21">
<path d="M267 440.694H251.837V460.156H267V440.694Z" fill="white"/>
</mask>
<g mask="url(#mask131_1837_9549)">
<mask id="mask132_1837_9549" style="mask-type:luminance" maskUnits="userSpaceOnUse" x="253" y="442" width="15" height="17">
<path d="M253.485 442.344H267V458.507H253.485V442.344Z" fill="white"/>
</mask>
<g mask="url(#mask132_1837_9549)">
<mask id="mask133_1837_9549" style="mask-type:luminance" maskUnits="userSpaceOnUse" x="252" y="440" width="20" height="21">
<path d="M255.336 440.843L271.281 444.088L268.038 460.045L252.092 456.8L255.336 440.843Z" fill="white"/>
</mask>
<g mask="url(#mask133_1837_9549)">
<mask id="mask134_1837_9549" style="mask-type:luminance" maskUnits="userSpaceOnUse" x="252" y="440" width="20" height="21">
<path d="M255.336 440.843L271.281 444.088L268.038 460.045L252.092 456.8L255.336 440.843Z" fill="white"/>
</mask>
<g mask="url(#mask134_1837_9549)">
<path d="M269.658 452.067C263.455 451.951 262.381 452.662 260.065 458.422C260.18 452.214 259.469 451.139 253.713 448.821C259.917 448.936 260.991 448.225 263.307 442.466C263.193 448.673 263.903 449.748 269.658 452.067Z" fill="white"/>
</g>
</g>
</g>
</g>
</g>
<mask id="mask135_1837_9549" style="mask-type:luminance" maskUnits="userSpaceOnUse" x="-27" y="-48" width="321" height="571">
<path d="M293.7 -47.5H-26.7V522.5H293.7V-47.5Z" fill="black" fill-opacity="0.5"/>
</mask>
<g mask="url(#mask135_1837_9549)">
<mask id="mask136_1837_9549" style="mask-type:luminance" maskUnits="userSpaceOnUse" x="265" y="458" width="2" height="9">
<path d="M267 458.177H265.022V466.754H267V458.177Z" fill="white"/>
</mask>
<g mask="url(#mask136_1837_9549)">
<mask id="mask137_1837_9549" style="mask-type:luminance" maskUnits="userSpaceOnUse" x="265" y="459" width="2" height="8">
<path d="M265.681 459.167H267V466.094H265.681V459.167Z" fill="white"/>
</mask>
<g mask="url(#mask137_1837_9549)">
<mask id="mask138_1837_9549" style="mask-type:luminance" maskUnits="userSpaceOnUse" x="265" y="458" width="9" height="9">
<path d="M266.428 458.513L273.009 459.853L271.67 466.439L265.089 465.099L266.428 458.513Z" fill="white"/>
</mask>
<g mask="url(#mask138_1837_9549)">
<mask id="mask139_1837_9549" style="mask-type:luminance" maskUnits="userSpaceOnUse" x="265" y="458" width="9" height="9">
<path d="M266.428 458.513L273.009 459.853L271.67 466.439L265.089 465.099L266.428 458.513Z" fill="white"/>
</mask>
<g mask="url(#mask139_1837_9549)">
<path d="M272.34 463.146C269.779 463.098 269.336 463.392 268.38 465.768C268.428 463.206 268.134 462.763 265.759 461.806C268.319 461.853 268.763 461.561 269.718 459.183C269.671 461.745 269.964 462.188 272.34 463.146Z" fill="white"/>
</g>
</g>
</g>
</g>
</g>
<mask id="mask140_1837_9549" style="mask-type:luminance" maskUnits="userSpaceOnUse" x="-27" y="-48" width="321" height="571">
<path d="M293.7 -47.5H-26.7V522.5H293.7V-47.5Z" fill="black" fill-opacity="0.5"/>
</mask>
<g mask="url(#mask140_1837_9549)">
<mask id="mask141_1837_9549" style="mask-type:luminance" maskUnits="userSpaceOnUse" x="26" y="98" width="34" height="39">
<path d="M59.3333 98.9583H26.7V136.562H59.3333V98.9583Z" fill="white"/>
</mask>
<g mask="url(#mask141_1837_9549)">
<mask id="mask142_1837_9549" style="mask-type:luminance" maskUnits="userSpaceOnUse" x="33" y="102" width="22" height="22">
<path d="M33.6221 102.587H54.3887V123.368H33.6221V102.587Z" fill="white"/>
</mask>
<g mask="url(#mask142_1837_9549)">
<mask id="mask143_1837_9549" style="mask-type:luminance" maskUnits="userSpaceOnUse" x="30" y="99" width="28" height="28">
<path d="M30.7725 105.695L51.2906 99.6464L57.3347 120.178L36.8178 126.227L30.7725 105.695Z" fill="white"/>
</mask>
<g mask="url(#mask143_1837_9549)">
<mask id="mask144_1837_9549" style="mask-type:luminance" maskUnits="userSpaceOnUse" x="30" y="99" width="28" height="28">
<path d="M30.7725 105.695L51.2906 99.6464L57.3347 120.178L36.8178 126.227L30.7725 105.695Z" fill="white"/>
</mask>
<g mask="url(#mask144_1837_9549)">
<path d="M54.3113 109.912C47.035 113.597 46.2251 115.084 47.0749 123.202C43.3923 115.92 41.9051 115.11 33.7944 115.96C41.0708 112.275 41.8807 110.787 41.0308 102.671C44.7134 109.952 46.2006 110.762 54.3113 109.912Z" fill="white"/>
</g>
</g>
</g>
<mask id="mask145_1837_9549" style="mask-type:luminance" maskUnits="userSpaceOnUse" x="31" y="125" width="10" height="10">
<path d="M31.6443 125.677H40.8739V134.913H31.6443V125.677Z" fill="white"/>
</mask>
<g mask="url(#mask145_1837_9549)">
<mask id="mask146_1837_9549" style="mask-type:luminance" maskUnits="userSpaceOnUse" x="30" y="124" width="13" height="13">
<path d="M30.5537 127.185L39.4138 124.573L42.0238 133.438L33.1637 136.051L30.5537 127.185Z" fill="white"/>
</mask>
<g mask="url(#mask146_1837_9549)">
<mask id="mask147_1837_9549" style="mask-type:luminance" maskUnits="userSpaceOnUse" x="30" y="124" width="13" height="13">
<path d="M30.5537 127.185L39.4138 124.573L42.0238 133.438L33.1637 136.051L30.5537 127.185Z" fill="white"/>
</mask>
<g mask="url(#mask147_1837_9549)">
<path d="M40.7182 129.005C37.5752 130.597 37.2262 131.238 37.5932 134.744C36.003 131.599 35.3605 131.25 31.8582 131.617C34.9999 130.026 35.3502 129.383 34.9832 125.878C36.5734 129.022 37.2146 129.373 40.7182 129.005Z" fill="white"/>
</g>
</g>
</g>
</g>
</g>
<mask id="mask148_1837_9549" style="mask-type:luminance" maskUnits="userSpaceOnUse" x="-27" y="-48" width="321" height="571">
<path d="M293.7 -47.5H-26.7V522.5H293.7V-47.5Z" fill="black" fill-opacity="0.5"/>
</mask>
<g mask="url(#mask148_1837_9549)">
<mask id="mask149_1837_9549" style="mask-type:luminance" maskUnits="userSpaceOnUse" x="4" y="325" width="40" height="42">
<path d="M43.1814 325.573H4.61475V366.806H43.1814V325.573Z" fill="white"/>
</mask>
<g mask="url(#mask149_1837_9549)">
<mask id="mask150_1837_9549" style="mask-type:luminance" maskUnits="userSpaceOnUse" x="16" y="332" width="22" height="22">
<path d="M16.811 332.17H37.9073V353.281H16.811V332.17Z" fill="white"/>
</mask>
<g mask="url(#mask150_1837_9549)">
<mask id="mask151_1837_9549" style="mask-type:luminance" maskUnits="userSpaceOnUse" x="14" y="329" width="27" height="27">
<path d="M19.7752 329.594L40.444 335.104L34.9369 355.787L14.2681 350.276L19.7752 329.594Z" fill="white"/>
</mask>
<g mask="url(#mask151_1837_9549)">
<mask id="mask152_1837_9549" style="mask-type:luminance" maskUnits="userSpaceOnUse" x="14" y="329" width="27" height="27">
<path d="M19.7752 329.594L40.444 335.104L34.9369 355.787L14.2681 350.276L19.7752 329.594Z" fill="white"/>
</mask>
<g mask="url(#mask152_1837_9549)">
<path d="M37.6884 345.444C29.5584 344.807 28.0944 345.656 24.6024 353.03C25.2398 344.894 24.3925 343.429 17.0222 339.935C25.1522 340.573 26.6175 339.725 30.1083 332.349C29.4709 340.485 30.3194 341.951 37.6884 345.444Z" fill="white"/>
</g>
</g>
</g>
<mask id="mask153_1837_9549" style="mask-type:luminance" maskUnits="userSpaceOnUse" x="6" y="348" width="11" height="11">
<path d="M6.92212 348.993H16.4814V358.229H6.92212V348.993Z" fill="white"/>
</mask>
<g mask="url(#mask153_1837_9549)">
<mask id="mask154_1837_9549" style="mask-type:luminance" maskUnits="userSpaceOnUse" x="6" y="347" width="12" height="13">
<path d="M8.41966 347.835L17.3454 350.215L14.9672 359.145L6.04272 356.765L8.41966 347.835Z" fill="white"/>
</mask>
<g mask="url(#mask154_1837_9549)">
<mask id="mask155_1837_9549" style="mask-type:luminance" maskUnits="userSpaceOnUse" x="6" y="347" width="12" height="13">
<path d="M8.41966 347.835L17.3454 350.215L14.9672 359.145L6.04272 356.765L8.41966 347.835Z" fill="white"/>
</mask>
<g mask="url(#mask155_1837_9549)">
<path d="M16.1557 354.679C12.6456 354.404 12.0121 354.771 10.5043 357.955C10.7799 354.442 10.4142 353.808 7.2312 352.299C10.7425 352.575 11.3747 352.209 12.8825 349.024C12.607 352.538 12.9727 353.17 16.1557 354.679Z" fill="white"/>
</g>
</g>
</g>
</g>
</g>
<mask id="mask156_1837_9549" style="mask-type:luminance" maskUnits="userSpaceOnUse" x="-27" y="-48" width="321" height="571">
<path d="M293.7 -47.5H-26.7V522.5H293.7V-47.5Z" fill="black" fill-opacity="0.5"/>
</mask>
<g mask="url(#mask156_1837_9549)">
<mask id="mask157_1837_9549" style="mask-type:luminance" maskUnits="userSpaceOnUse" x="212" y="71" width="15" height="18">
<path d="M226.456 71.9097H212.611V88.7326H226.456V71.9097Z" fill="white"/>
</mask>
<g mask="url(#mask157_1837_9549)">
<mask id="mask158_1837_9549" style="mask-type:luminance" maskUnits="userSpaceOnUse" x="214" y="72" width="13" height="16">
<path d="M214.259 72.2396H226.126V87.7431H214.259V72.2396Z" fill="white"/>
</mask>
<g mask="url(#mask158_1837_9549)">
<mask id="mask159_1837_9549" style="mask-type:luminance" maskUnits="userSpaceOnUse" x="212" y="71" width="15" height="18">
<path d="M214.731 71.4523L226.496 73.0088L224.455 88.4595L212.69 86.9042L214.731 71.4523Z" fill="white"/>
</mask>
<g mask="url(#mask159_1837_9549)">
<mask id="mask160_1837_9549" style="mask-type:luminance" maskUnits="userSpaceOnUse" x="212" y="71" width="15" height="18">
<path d="M226.465 73.005L214.7 71.4484L212.66 86.9004L224.424 88.4556L226.465 73.005Z" fill="white"/>
</mask>
<g mask="url(#mask160_1837_9549)">
<path d="M216.256 72.5089C216.256 72.5089 216.26 72.5089 216.26 72.5063C216.607 72.3994 216.981 72.4548 217.27 72.6738C217.681 72.9869 218.086 73.291 218.425 73.6595C219.419 74.7303 219.765 76.1464 220.247 77.6295C220.507 77.261 220.701 77.0084 220.874 76.7417C221.654 75.524 222.674 74.5293 223.79 73.6299C223.798 73.6247 223.804 73.6196 223.808 73.6144C224.847 72.7911 226.367 73.7214 226.091 75.0215C226.062 75.1568 226.028 75.2934 225.986 75.4287C225.256 77.8575 224.243 80.1588 222.83 82.2733C221.89 83.6804 220.921 85.0694 219.991 86.4842C219.818 86.7483 219.683 87.0357 219.542 87.3372C219.401 87.6387 219.013 87.7405 218.753 87.5317C218.529 87.3565 218.353 87.1001 218.228 86.7728C217.781 85.6028 217.123 84.5334 216.755 83.3196C216.305 81.8288 215.629 80.4049 215.183 78.9128C214.844 77.7751 214.58 76.5832 214.519 75.4042C214.428 73.5307 214.7 72.9805 216.256 72.5089ZM225.028 76.5561L223.446 80.2091C224.264 79.1035 224.867 77.9194 225.028 76.5561ZM222.321 78.2608C222.545 77.7042 222.772 77.145 222.995 76.5883L222.8 76.511L222.14 78.1874L222.321 78.2608ZM220.463 78.4631C221.059 77.5599 221.654 76.6553 222.246 75.7547C221.345 76.4595 220.705 77.3331 220.463 78.4631ZM221.318 78.65C220.704 79.5545 220.207 80.4977 220.015 81.5839C220.677 80.7065 220.933 79.6447 221.318 78.65ZM219.327 86.5795C219.754 86.3399 220.042 85.9817 220.108 85.2704L218.874 86.385C219.018 86.4533 219.239 86.6324 219.327 86.5795ZM218.215 83.893L218.283 83.9033L218.484 82.379L218.416 82.3699L218.215 83.893ZM217.374 81.7527L217.628 81.7953C217.666 80.7425 217.701 79.6872 217.74 78.6345L217.638 78.6242C217.549 79.6679 217.463 80.7116 217.374 81.7527ZM216.631 79.2195L216.748 79.2298L216.791 78.5662L216.724 78.5456L216.634 79.2208L216.631 79.2195ZM217.068 76.9981L217.25 76.9801L217.249 75.0267L217.053 75.0254C217.059 75.6812 217.064 76.3384 217.068 76.9981ZM215.878 77.5947C216.138 76.6438 216.008 75.6683 215.964 74.7071C215.578 75.6593 215.644 76.6231 215.878 77.5947ZM215.369 74.5615L215.86 73.7832C216.001 73.5616 216.312 73.523 216.501 73.7072L216.675 73.8734C216.647 73.6222 216.692 73.3774 216.603 73.3142C216.206 73.0269 215.649 73.2369 215.489 73.7227C215.408 73.9675 215.412 74.2407 215.369 74.5615Z" fill="white"/>
</g>
</g>
</g>
</g>
</g>
<mask id="mask161_1837_9549" style="mask-type:luminance" maskUnits="userSpaceOnUse" x="-27" y="-48" width="321" height="571">
<path d="M293.7 -47.5H-26.7V522.5H293.7V-47.5Z" fill="black" fill-opacity="0.5"/>
</mask>
<g mask="url(#mask161_1837_9549)">
<mask id="mask162_1837_9549" style="mask-type:luminance" maskUnits="userSpaceOnUse" x="108" y="166" width="21" height="23">
<path d="M128.226 166.58H108.778V188.351H128.226V166.58Z" fill="white"/>
</mask>
<g mask="url(#mask162_1837_9549)">
<mask id="mask163_1837_9549" style="mask-type:luminance" maskUnits="userSpaceOnUse" x="109" y="166" width="15" height="21">
<path d="M109.767 166.91H123.611V186.042H109.767V166.91Z" fill="white"/>
</mask>
<g mask="url(#mask163_1837_9549)">
<mask id="mask164_1837_9549" style="mask-type:luminance" maskUnits="userSpaceOnUse" x="108" y="166" width="21" height="23">
<path d="M108.789 170.391L122.448 166.026L128.167 183.936L114.508 188.302L108.789 170.391Z" fill="white"/>
</mask>
<g mask="url(#mask164_1837_9549)">
<mask id="mask165_1837_9549" style="mask-type:luminance" maskUnits="userSpaceOnUse" x="108" y="166" width="21" height="23">
<path d="M122.412 166.037L108.753 170.404L114.47 188.315L128.129 183.948L122.412 166.037Z" fill="white"/>
</mask>
<g mask="url(#mask165_1837_9549)">
<path d="M110.999 170.759C110.999 170.759 111.003 170.757 111.001 170.753C111.326 170.458 111.764 170.327 112.191 170.416C112.8 170.546 113.4 170.668 113.96 170.896C115.598 171.552 116.706 172.918 117.996 174.288C118.09 173.752 118.172 173.377 118.224 172.997C118.45 171.265 119.054 169.654 119.813 168.098C119.816 168.089 119.822 168.08 119.823 168.072C120.536 166.637 122.675 166.868 123.043 168.429C123.079 168.594 123.113 168.759 123.136 168.928C123.589 171.956 123.666 174.989 123.207 178.023C122.904 180.044 122.56 182.058 122.269 184.082C122.217 184.458 122.217 184.842 122.218 185.244C122.219 185.645 121.847 185.957 121.456 185.863C121.121 185.785 120.796 185.598 120.491 185.305C119.401 184.26 118.131 183.431 117.105 182.296C115.845 180.902 114.375 179.698 113.118 178.299C112.164 177.232 111.263 176.069 110.589 174.812C109.526 172.815 109.539 172.075 110.999 170.759ZM122.67 170.652L122.82 175.454C123.145 173.825 123.194 172.224 122.67 170.652ZM120.588 173.908C120.545 173.185 120.505 172.458 120.463 171.737L120.21 171.752L120.351 173.922L120.588 173.908ZM118.661 175.087C118.847 173.793 119.034 172.501 119.216 171.212C118.593 172.445 118.342 173.729 118.661 175.087ZM119.69 174.85C119.486 176.152 119.428 177.44 119.775 178.722C120.048 177.424 119.782 176.134 119.69 174.85ZM121.595 184.528C121.936 184.047 122.067 183.507 121.774 182.697L120.998 184.55C121.19 184.55 121.524 184.631 121.595 184.528ZM118.995 182.171L119.076 182.145L118.512 180.379L118.431 180.404L118.995 182.171ZM116.976 180.269L117.275 180.184C116.775 179.015 116.272 177.847 115.771 176.677L115.654 176.718C116.094 177.903 116.537 179.088 116.976 180.269ZM114.86 177.888L114.994 177.838L114.698 177.093L114.614 177.104L114.864 177.887L114.86 177.888ZM114.195 175.239L114.385 175.124L113.378 172.994L113.165 173.093C113.507 173.807 113.851 174.521 114.195 175.239ZM113.201 176.503C112.996 175.33 112.351 174.333 111.809 173.307C111.878 174.545 112.445 175.563 113.201 176.503ZM111.084 173.455L111.22 172.354C111.262 172.038 111.581 171.837 111.882 171.939L112.158 172.032C111.998 171.773 111.921 171.483 111.791 171.459C111.211 171.35 110.708 171.867 110.784 172.479C110.821 172.788 110.965 173.083 111.084 173.455Z" fill="white"/>
</g>
</g>
</g>
</g>
</g>
<mask id="mask166_1837_9549" style="mask-type:luminance" maskUnits="userSpaceOnUse" x="-27" y="-48" width="321" height="571">
<path d="M293.7 -47.5H-26.7V522.5H293.7V-47.5Z" fill="black" fill-opacity="0.5"/>
</mask>
<g mask="url(#mask166_1837_9549)">
<mask id="mask167_1837_9549" style="mask-type:luminance" maskUnits="userSpaceOnUse" x="160" y="394" width="20" height="23">
<path d="M179.319 394.514H160.53V416.615H179.319V394.514Z" fill="white"/>
</mask>
<g mask="url(#mask167_1837_9549)">
<mask id="mask168_1837_9549" style="mask-type:luminance" maskUnits="userSpaceOnUse" x="164" y="395" width="15" height="20">
<path d="M164.485 395.503H178.989V414.965H164.485V395.503Z" fill="white"/>
</mask>
<g mask="url(#mask168_1837_9549)">
<mask id="mask169_1837_9549" style="mask-type:luminance" maskUnits="userSpaceOnUse" x="160" y="394" width="20" height="23">
<path d="M165.396 394.138L179.5 397.855L174.59 416.515L160.485 412.799L165.396 394.138Z" fill="white"/>
</mask>
<g mask="url(#mask169_1837_9549)">
<mask id="mask170_1837_9549" style="mask-type:luminance" maskUnits="userSpaceOnUse" x="160" y="394" width="20" height="23">
<path d="M179.508 397.858L165.403 394.14L160.492 412.801L174.598 416.518L179.508 397.858Z" fill="white"/>
</mask>
<g mask="url(#mask170_1837_9549)">
<path d="M167.135 395.681C167.135 395.681 167.139 395.683 167.141 395.679C167.58 395.601 168.028 395.726 168.346 396.038C168.796 396.487 169.243 396.922 169.6 397.427C170.644 398.895 170.845 400.687 171.2 402.581C171.574 402.169 171.852 401.889 172.104 401.588C173.246 400.212 174.646 399.147 176.149 398.216C176.158 398.209 176.167 398.204 176.173 398.198C177.57 397.346 179.278 398.722 178.737 400.276C178.679 400.439 178.617 400.601 178.545 400.759C177.274 403.631 175.679 406.303 173.622 408.681C172.255 410.265 170.858 411.821 169.499 413.416C169.248 413.714 169.037 414.045 168.818 414.394C168.599 414.744 168.11 414.808 167.826 414.513C167.581 414.262 167.404 413.922 167.304 413.5C166.942 411.995 166.307 410.58 166.049 409.033C165.733 407.132 165.132 405.282 164.822 403.379C164.587 401.931 164.452 400.428 164.563 398.97C164.744 396.655 165.161 396.021 167.135 395.681ZM177.199 401.998L174.699 406.242C175.869 405.009 176.789 403.647 177.199 401.998ZM173.631 403.675C173.991 403.026 174.355 402.375 174.714 401.726L174.489 401.601L173.42 403.558L173.631 403.675ZM171.333 403.639C172.201 402.621 173.07 401.602 173.933 400.587C172.722 401.313 171.804 402.288 171.333 403.639ZM172.346 403.999C171.457 405.015 170.702 406.099 170.298 407.402C171.242 406.428 171.721 405.162 172.346 403.999ZM168.677 413.432C169.233 413.203 169.641 412.806 169.833 411.942L168.154 413.123C168.317 413.228 168.559 413.482 168.677 413.432ZM167.739 409.962L167.822 409.984L168.306 408.144L168.223 408.122L167.739 409.962ZM167.049 407.205L167.352 407.296C167.564 406.008 167.773 404.719 167.985 403.43L167.862 403.402C167.59 404.67 167.321 405.939 167.049 407.205ZM166.54 403.979L166.682 404.009L166.838 403.202L166.758 403.165L166.544 403.981L166.54 403.979ZM167.421 401.319L167.647 401.324L167.952 398.925L167.713 398.894C167.617 399.7 167.519 400.508 167.421 401.319ZM165.877 401.869C166.343 400.74 166.337 399.522 166.434 398.336C165.814 399.446 165.742 400.64 165.877 401.869ZM165.732 398.065L166.452 397.186C166.66 396.935 167.044 396.935 167.246 397.19L167.432 397.421C167.437 397.109 167.529 396.815 167.43 396.724C166.994 396.31 166.279 396.481 166.009 397.054C165.871 397.343 165.834 397.677 165.732 398.065Z" fill="white"/>
</g>
</g>
</g>
</g>
</g>
</g>
<defs>
<clipPath id="clip0_1837_9549">
<rect width="267" height="475" fill="white"/>
</clipPath>
</defs>
</svg>
