<svg width="13" height="14" viewBox="0 0 13 14" fill="none" xmlns="http://www.w3.org/2000/svg">
<g clip-path="url(#clip0_1867_7935)">
<path d="M8.17422 1.27969C8.27539 1.03359 8.51602 0.875 8.78125 0.875L11.8438 0.875C12.2074 0.875 12.5 1.16758 12.5 1.53125L12.5 4.59375C12.5 4.85898 12.3414 5.09961 12.0953 5.20078C11.8492 5.30195 11.5676 5.24727 11.3789 5.05859L10.4656 4.14531L9.02734 5.58359C9.56055 6.36016 9.875 7.29805 9.875 8.3125C9.875 10.9703 7.72031 13.125 5.0625 13.125C2.40469 13.125 0.25 10.9703 0.25 8.3125C0.25 5.65469 2.40469 3.5 5.0625 3.5C6.07422 3.5 7.01484 3.81172 7.79141 4.34766L9.22969 2.90937L8.31641 1.99609C8.12773 1.80742 8.07305 1.52578 8.17422 1.27969ZM5.0625 11.375C5.46467 11.375 5.86291 11.2958 6.23447 11.1419C6.60603 10.988 6.94364 10.7624 7.22801 10.478C7.51239 10.1936 7.73798 9.85603 7.89188 9.48447C8.04579 9.11291 8.125 8.71467 8.125 8.3125C8.125 7.91033 8.04579 7.51209 7.89188 7.14053C7.73798 6.76897 7.51239 6.43136 7.22801 6.14699C6.94364 5.86261 6.60603 5.63702 6.23447 5.48312C5.86291 5.32921 5.46467 5.25 5.0625 5.25C4.66033 5.25 4.26209 5.32921 3.89053 5.48312C3.51897 5.63702 3.18136 5.86261 2.89699 6.14699C2.61261 6.43137 2.38702 6.76897 2.23312 7.14053C2.07921 7.51209 2 7.91033 2 8.3125C2 8.71467 2.07921 9.11291 2.23312 9.48447C2.38702 9.85603 2.61261 10.1936 2.89699 10.478C3.18136 10.7624 3.51897 10.988 3.89053 11.1419C4.26209 11.2958 4.66033 11.375 5.0625 11.375Z" fill="white"/>
</g>
<defs>
<clipPath id="clip0_1867_7935">
<rect width="12.25" height="14" fill="white" transform="translate(0.25)"/>
</clipPath>
</defs>
</svg>
