<svg width="1000" height="68" viewBox="0 0 1000 68" fill="none" xmlns="http://www.w3.org/2000/svg">
<path d="M943.034 22.9968C866.327 2.23627 785.958 41.0054 747.439 32.5013C741.174 31.1183 735.968 29.4706 731.677 27.6724C687.761 42.1633 569.438 57.7589 261.203 56.0125C157.253 55.4236 0.0760046 23.4971 0.0760046 23.4971L0.0760057 65.5L1000.04 65.5L1000.04 44.5038C989.762 39.6217 962.01 28.1325 943.034 22.9968Z" fill="#FAFAFA"/>
<path d="M731.677 27.6724C735.968 29.4706 741.174 31.1183 747.439 32.5013C785.958 41.0054 866.327 2.23627 943.034 22.9968C962.01 28.1325 989.762 39.6217 1000.04 44.5038L1000.04 65.5L0.0760057 65.5L0.0760046 23.4971C0.0760046 23.4971 157.253 55.4236 261.203 56.0125C569.438 57.7589 687.761 42.1633 731.677 27.6724ZM731.677 27.6724C709.58 18.4136 711.723 5.16306 718.425 3.48758C726.037 1.58474 731.431 8.99029 731.431 8.99029C731.431 8.99029 745.938 -3.01539 753.942 4.98841C756.368 7.4143 763.238 17.2581 731.677 27.6724Z" stroke="#FAFAFA" stroke-width="4"/>
</svg>
