<svg width="27" height="33" viewBox="0 0 27 33" fill="none" xmlns="http://www.w3.org/2000/svg">
<g id="Group">
<g id="Clip path group">
<mask id="mask0_1748_1749" style="mask-type:luminance" maskUnits="userSpaceOnUse" x="0" y="0" width="27" height="33">
<g id="9a9a37db55">
<path id="Vector" d="M26.8771 5.07939L5.66638 0.696289L2.13385e-05 28.1169L21.2107 32.5L26.8771 5.07939Z" fill="white"/>
</g>
</mask>
<g mask="url(#mask0_1748_1749)">
<g id="Group_2">
<path id="Vector_2" d="M8.29338 1.93901C8.29338 1.93901 8.2989 1.94015 8.30004 1.93463C8.95875 1.78316 9.64671 1.93682 10.1536 2.38106C10.8739 3.01886 11.5865 3.638 12.1668 4.36774C13.8696 6.49181 14.3238 9.16907 15.0193 11.9881C15.5508 11.3385 15.9472 10.8968 16.304 10.424C17.9184 8.26632 19.9472 6.55663 22.1438 5.03714C22.1571 5.0284 22.1704 5.01949 22.1782 5.0096C24.2214 3.61955 26.9193 5.55212 26.2321 7.93027C26.1576 8.17947 26.0774 8.42766 25.9809 8.67231C24.2969 13.0884 22.106 17.2269 19.1924 20.9632C17.2562 23.4513 15.2704 25.9006 13.3486 28.4033C12.9929 28.8705 12.7022 29.386 12.4003 29.9277C12.0983 30.4694 11.3622 30.605 10.9082 30.1832C10.5157 29.8258 10.2214 29.3278 10.034 28.7022C9.36135 26.4689 8.28203 24.3932 7.76244 22.088C7.12673 19.2581 6.06243 16.5239 5.43337 13.6896C4.95823 11.5316 4.62833 9.28281 4.67429 7.08289C4.75696 3.59025 5.33472 2.60494 8.29338 1.93901ZM24.049 10.6379L20.6177 17.2129C22.2863 15.2678 23.5644 13.1499 24.049 10.6379ZM18.7894 13.4405C19.2788 12.4369 19.775 11.429 20.2646 10.4254L19.914 10.2551L18.4599 13.2802L18.7894 13.4405ZM15.3091 13.567C16.5376 11.9682 17.766 10.3693 18.9879 8.7749C17.2168 9.9625 15.9091 11.4988 15.3091 13.567ZM16.8718 14.028C15.609 15.6255 14.558 17.3127 14.0546 19.3031C15.4032 17.7636 16.0223 15.826 16.8718 14.028ZM12.1042 28.4913C12.9269 28.1032 13.5113 27.476 13.7308 26.1635L11.2875 28.0694C11.5452 28.2146 11.931 28.5764 12.1042 28.4913ZM10.3971 23.3516L10.5241 23.3779L11.1033 20.5747L10.9764 20.5484L10.3971 23.3516ZM9.12356 19.2622L9.58939 19.3757C9.80283 17.4233 10.0109 15.4697 10.2243 13.5175L10.0354 13.4842C9.72926 15.4115 9.4286 17.3402 9.12356 19.2622ZM8.08439 14.456L8.30199 14.4895L8.46886 13.2639L8.34646 13.2156L8.0899 14.4572L8.08439 14.456ZM9.19575 10.3878L9.53748 10.3777L9.79782 6.74935L9.4354 6.72045C9.35594 7.94111 9.27635 9.16159 9.19575 10.3878ZM6.90433 11.3355C7.51553 9.60334 7.40434 7.77368 7.45204 5.9826C6.6075 7.70099 6.59854 9.50008 6.90433 11.3355ZM6.36727 5.63181L7.38324 4.25384C7.67763 3.86005 8.25935 3.8308 8.58663 4.19752L8.88633 4.52996C8.86829 4.06011 8.98383 3.61227 8.82649 3.48187C8.13031 2.89504 7.06357 3.20971 6.70306 4.09029C6.51909 4.53548 6.48927 5.04143 6.36727 5.63181Z" fill="#282828"/>
</g>
</g>
</g>
</g>
</svg>
