<svg width="220" height="51" viewBox="0 0 220 51" fill="none" xmlns="http://www.w3.org/2000/svg">
<g filter="url(#filter0_d_1864_9567)">
<path d="M148.328 7.94135C148.242 7.64575 148.508 7.36766 148.807 7.44078L155.139 8.98878C155.438 9.0619 155.546 9.4314 155.333 9.65388L150.826 14.3635C150.614 14.586 150.24 14.4946 150.153 14.199L148.328 7.94135Z" fill="#282828"/>
</g>
<g filter="url(#filter1_d_1864_9567)">
<path d="M163.805 2.62024C164.009 2.38931 164.386 2.46547 164.484 2.75733L166.462 8.63836C166.56 8.93022 166.306 9.21888 166.004 9.15795L159.922 7.93022C159.62 7.86929 159.497 7.50446 159.701 7.27353L163.805 2.62024Z" fill="#282828"/>
</g>
<g filter="url(#filter2_d_1864_9567)">
<path d="M13.92 8.12C16.08 8.12 18.0533 8.52 19.84 9.32C21.6533 10.0933 23.08 11.2 24.12 12.64C25.1867 14.0533 25.72 15.6667 25.72 17.48C25.72 19.1867 25.2533 20.72 24.32 22.08C23.3867 23.44 22.1067 24.5067 20.48 25.28C18.88 26.0267 17.0933 26.4 15.12 26.4C14.2133 26.4 13.32 26.3333 12.44 26.2C11.5867 26.0667 10.88 25.9067 10.32 25.72L10.24 33.72C10.24 34.4933 9.96 35.1333 9.4 35.64C8.86667 36.12 8.14667 36.36 7.24 36.36C6.33333 36.36 5.6 36.1067 5.04 35.6C4.50667 35.0933 4.26667 34.4133 4.32 33.56C4.42667 30.7867 4.48 27.68 4.48 24.24C4.48 20.9867 4.41333 18.0933 4.28 15.56L4.16 15.64C3.89333 15.7733 3.65333 15.84 3.44 15.84C2.98667 15.84 2.61333 15.5867 2.32 15.08C2.02667 14.5733 1.88 13.9867 1.88 13.32C1.88 12.7867 2.04 12.36 2.36 12.04C2.68 11.6933 3.16 11.32 3.8 10.92L4.12 10.72V10.2C4.12 9.34666 4.36 8.70667 4.84 8.28C5.32 7.82667 6.09333 7.6 7.16 7.6C8.22667 7.6 8.96 7.70667 9.36 7.92C9.78667 8.10666 10 8.30666 10 8.52V8.56C11.3067 8.26667 12.6133 8.12 13.92 8.12ZM14.16 21.68C15.6 21.68 16.7733 21.2533 17.68 20.4C18.6133 19.5467 19.08 18.5067 19.08 17.28C19.08 16.0267 18.5733 15.04 17.56 14.32C16.5733 13.5733 15.2933 13.2 13.72 13.2C12.8667 13.2 11.6667 13.36 10.12 13.68C10.1467 14.1333 10.16 14.7067 10.16 15.4C10.16 16.4667 10.1867 17.72 10.24 19.16C10.2933 19.96 10.32 20.5467 10.32 20.92C10.72 21.1067 11.2933 21.28 12.04 21.44C12.8133 21.6 13.52 21.68 14.16 21.68ZM40.7847 15.24C41.8514 15.24 42.838 15.4933 43.7447 16C44.6514 16.48 45.3714 17.1733 45.9047 18.08C46.438 18.9867 46.7047 20.04 46.7047 21.24C46.7047 22.9733 46.1314 24.32 44.9847 25.28C43.8647 26.2133 42.4114 26.68 40.6247 26.68C39.6914 26.68 39.038 26.5467 38.6647 26.28C38.2914 25.9867 38.1047 25.5067 38.1047 24.84C38.1047 24.2 38.238 23.76 38.5047 23.52C38.7714 23.2533 39.1447 23.0933 39.6247 23.04C41.198 22.88 41.9847 22.2267 41.9847 21.08C41.9847 20.6 41.8647 20.24 41.6247 20C41.4114 19.7333 41.1047 19.6 40.7047 19.6C39.9847 19.6 39.318 20.0133 38.7047 20.84C38.0914 21.64 37.5847 22.5867 37.1847 23.68C36.7847 24.7467 36.5314 25.6533 36.4247 26.4C36.238 27.5733 36.1447 29.6533 36.1447 32.64C36.1447 34.08 35.9314 35.0667 35.5047 35.6C35.1047 36.1067 34.3847 36.36 33.3447 36.36C32.3847 36.36 31.6514 36.1733 31.1447 35.8C30.6647 35.4267 30.4114 34.8533 30.3847 34.08V32.24V27.6C30.3847 25.8933 30.3447 24.4533 30.2647 23.28C30.1847 22.08 30.0514 20.5467 29.8647 18.68L29.7047 17.04C29.6514 16.3733 29.8647 15.8267 30.3447 15.4C30.8514 14.9733 31.5447 14.76 32.4247 14.76C33.918 14.76 34.718 15.4267 34.8247 16.76C34.878 17.4 34.9314 18.3067 34.9847 19.48C35.518 18.2267 36.2647 17.2133 37.2247 16.44C38.2114 15.64 39.398 15.24 40.7847 15.24ZM60.4041 36.12C57.0174 36.12 54.3241 35.24 52.3241 33.48C50.3507 31.6933 49.3641 29.2 49.3641 26C49.3641 23.92 49.8041 22.0667 50.6841 20.44C51.5641 18.8133 52.8041 17.5467 54.4041 16.64C56.0307 15.7333 57.9374 15.28 60.1241 15.28C62.3374 15.28 64.2841 15.7467 65.9641 16.68C67.6441 17.6133 68.9374 18.92 69.8441 20.6C70.7774 22.2533 71.2441 24.1467 71.2441 26.28C71.2441 29.4 70.2707 31.8267 68.3241 33.56C66.3774 35.2667 63.7374 36.12 60.4041 36.12ZM60.3241 31.68C61.9507 31.68 63.2041 31.2267 64.0841 30.32C64.9907 29.3867 65.4441 28.0133 65.4441 26.2C65.4441 24.4133 65.0041 22.8933 64.1241 21.64C63.2707 20.36 62.0041 19.72 60.3241 19.72C58.7507 19.72 57.4974 20.2933 56.5641 21.44C55.6307 22.5867 55.1641 24.12 55.1641 26.04C55.1641 27.9067 55.6174 29.32 56.5241 30.28C57.4307 31.2133 58.6974 31.68 60.3241 31.68ZM84.3009 36.04C82.3276 36.04 80.5543 35.6267 78.9809 34.8C77.4343 33.9733 76.2209 32.8133 75.3409 31.32C74.4876 29.8267 74.0609 28.1067 74.0609 26.16C74.0609 24.16 74.5143 22.3467 75.4209 20.72C76.3276 19.0667 77.5809 17.7733 79.1809 16.84C80.8076 15.88 82.6343 15.4 84.6609 15.4C86.8209 15.4 88.7409 15.92 90.4209 16.96C92.1276 18 93.3009 19.3467 93.9409 21C94.1543 21.5067 94.2609 21.9467 94.2609 22.32C94.2609 23.2 93.6476 23.7867 92.4209 24.08C92.0743 24.16 91.7543 24.2 91.4609 24.2C90.9276 24.2 90.4876 24.0667 90.1409 23.8C89.8209 23.5067 89.4609 23.04 89.0609 22.4C88.5543 21.6267 87.9809 21.0133 87.3409 20.56C86.7009 20.08 85.9143 19.84 84.9809 19.84C83.4876 19.84 82.2609 20.4533 81.3009 21.68C80.3409 22.88 79.8609 24.4 79.8609 26.24C79.8609 27.92 80.2876 29.24 81.1409 30.2C82.0209 31.1333 83.2876 31.6 84.9409 31.6C86.5143 31.6 87.6743 31.2 88.4209 30.4C89.1943 29.5733 89.5809 28.6133 89.5809 27.52C89.5809 27.0933 89.7943 26.7067 90.2209 26.36C90.6743 25.9867 91.2743 25.8 92.0209 25.8C92.9276 25.8 93.6076 25.9733 94.0609 26.32C94.5409 26.6667 94.7809 27.28 94.7809 28.16C94.7809 29.4933 94.4343 30.76 93.7409 31.96C93.0476 33.16 91.9143 34.1467 90.3409 34.92C88.7943 35.6667 86.7809 36.04 84.3009 36.04ZM108.607 36.12C105.221 36.12 102.527 35.24 100.527 33.48C98.5539 31.6933 97.5672 29.2 97.5672 26C97.5672 23.92 98.0072 22.0667 98.8872 20.44C99.7672 18.8133 101.007 17.5467 102.607 16.64C104.234 15.7333 106.141 15.28 108.327 15.28C110.541 15.28 112.487 15.7467 114.167 16.68C115.847 17.6133 117.141 18.92 118.047 20.6C118.981 22.2533 119.447 24.1467 119.447 26.28C119.447 29.4 118.474 31.8267 116.527 33.56C114.581 35.2667 111.941 36.12 108.607 36.12ZM108.527 31.68C110.154 31.68 111.407 31.2267 112.287 30.32C113.194 29.3867 113.647 28.0133 113.647 26.2C113.647 24.4133 113.207 22.8933 112.327 21.64C111.474 20.36 110.207 19.72 108.527 19.72C106.954 19.72 105.701 20.2933 104.767 21.44C103.834 22.5867 103.367 24.12 103.367 26.04C103.367 27.9067 103.821 29.32 104.727 30.28C105.634 31.2133 106.901 31.68 108.527 31.68ZM134.344 15.48C136.291 15.48 138.011 15.92 139.504 16.8C141.024 17.6533 142.197 18.8667 143.024 20.44C143.851 21.9867 144.264 23.8 144.264 25.88C144.264 27.9867 143.837 29.8133 142.984 31.36C142.157 32.9067 140.984 34.1067 139.464 34.96C137.944 35.7867 136.197 36.2 134.224 36.2C133.104 36.2 132.037 36.0933 131.024 35.88C130.011 35.64 129.264 35.4 128.784 35.16L128.744 39C128.691 40.6533 128.664 41.92 128.664 42.8C128.664 43.44 128.384 43.96 127.824 44.36C127.264 44.76 126.557 44.96 125.704 44.96C124.797 44.96 124.091 44.7333 123.584 44.28C123.077 43.8267 122.851 43.2533 122.904 42.56C123.011 41.4133 123.077 40.1333 123.104 38.72C123.131 37.3067 123.144 35.5333 123.144 33.4L123.184 28.68C123.237 26.3333 123.264 24.24 123.264 22.4C123.264 21.7067 123.197 21.1867 123.064 20.84C122.957 20.4667 122.784 20.1467 122.544 19.88C122.304 19.6133 122.131 19.4 122.024 19.24C121.917 19.0533 121.864 18.84 121.864 18.6C121.864 17.9867 122.211 17.3867 122.904 16.8C123.597 16.2133 124.304 15.92 125.024 15.92C125.424 15.92 125.784 16.0533 126.104 16.32C126.744 16.9067 127.264 17.56 127.664 18.28C128.277 17.48 129.144 16.8133 130.264 16.28C131.384 15.7467 132.744 15.48 134.344 15.48ZM133.504 31.76C135.077 31.76 136.291 31.24 137.144 30.2C138.024 29.16 138.464 27.68 138.464 25.76C138.464 23.9467 138.077 22.5467 137.304 21.56C136.531 20.5467 135.397 20.04 133.904 20.04C132.944 20.04 132.104 20.2267 131.384 20.6C130.664 20.9733 130.104 21.44 129.704 22C129.304 22.5333 129.104 23.04 129.104 23.52L129.024 30.6C129.157 30.8133 129.717 31.0667 130.704 31.36C131.691 31.6267 132.624 31.76 133.504 31.76ZM171.259 23.12C172.219 23.12 172.966 23.3733 173.499 23.88C174.059 24.3867 174.339 25.0667 174.339 25.92C174.339 27.8667 173.793 29.6267 172.699 31.2C171.633 32.7467 170.153 33.96 168.259 34.84C166.366 35.72 164.246 36.16 161.899 36.16C159.126 36.16 156.673 35.6133 154.539 34.52C152.433 33.4 150.793 31.8267 149.619 29.8C148.446 27.7467 147.859 25.3867 147.859 22.72C147.859 19.8933 148.406 17.32 149.499 15C150.619 12.6533 152.139 10.8133 154.059 9.48C155.979 8.12 158.099 7.44 160.419 7.44C163.486 7.44 165.846 8.16 167.499 9.6V9.4C167.499 8.89333 167.753 8.45333 168.259 8.08C168.766 7.70667 169.406 7.52 170.179 7.52C171.086 7.52 171.793 7.74667 172.299 8.2C172.806 8.62667 173.059 9.25333 173.059 10.08L173.019 13.92C172.966 16.2667 172.006 17.44 170.139 17.44C169.713 17.44 169.286 17.36 168.859 17.2C168.459 17.04 168.153 16.8133 167.939 16.52C167.246 15.5867 166.686 14.88 166.259 14.4C165.833 13.92 165.273 13.5067 164.579 13.16C163.886 12.8133 163.033 12.64 162.019 12.64C160.659 12.64 159.326 13.0933 158.019 14C156.739 14.9067 155.686 16.1333 154.859 17.68C154.059 19.2 153.659 20.8667 153.659 22.68C153.659 24.28 154.019 25.7067 154.739 26.96C155.486 28.2133 156.486 29.2 157.739 29.92C159.019 30.6133 160.406 30.96 161.899 30.96C163.046 30.96 164.113 30.7467 165.099 30.32C166.086 29.8933 166.873 29.2933 167.459 28.52C168.073 27.72 168.379 26.8267 168.379 25.84C168.379 25.04 168.633 24.3867 169.139 23.88C169.646 23.3733 170.353 23.12 171.259 23.12ZM196.907 31.56C197.414 31.64 197.8 31.8267 198.067 32.12C198.36 32.4133 198.507 32.9333 198.507 33.68C198.507 34.32 198.334 34.8667 197.987 35.32C197.667 35.7733 197.227 36 196.667 36C195.52 36 194.64 35.8667 194.027 35.6C193.414 35.3067 192.854 34.7867 192.347 34.04C191.76 34.92 190.96 35.5467 189.947 35.92C188.934 36.2667 187.747 36.44 186.387 36.44C183.374 36.44 181.08 35.5733 179.507 33.84C177.934 32.1067 177.147 29.6933 177.147 26.6C177.147 24.5733 177.56 22.7733 178.387 21.2C179.214 19.6267 180.36 18.4 181.827 17.52C183.32 16.64 185.027 16.2 186.947 16.2C187.907 16.2 188.8 16.3867 189.627 16.76C190.454 17.1333 191.08 17.6267 191.507 18.24L191.587 17.72C191.64 17.3467 191.854 17.04 192.227 16.8C192.6 16.5333 193.187 16.4 193.987 16.4C194.84 16.4 195.467 16.5733 195.867 16.92C196.267 17.2667 196.467 17.7067 196.467 18.24C196.467 18.4267 196.454 18.5733 196.427 18.68C196.267 19.5867 196.107 21.1067 195.947 23.24C195.867 24.2267 195.827 25.4933 195.827 27.04V29.04C195.827 29.8133 195.894 30.4133 196.027 30.84C196.16 31.24 196.454 31.48 196.907 31.56ZM190.227 28.8C190.254 27.7067 190.267 26.0133 190.267 23.72C190.267 22.8133 189.96 22.08 189.347 21.52C188.76 20.9333 188 20.64 187.067 20.64C185.867 20.64 184.88 21.2 184.107 22.32C183.334 23.4133 182.947 24.8267 182.947 26.56C182.947 28.2133 183.294 29.5333 183.987 30.52C184.68 31.5067 185.614 32 186.787 32C187.88 32 188.72 31.7333 189.307 31.2C189.894 30.64 190.2 29.84 190.227 28.8ZM214.157 28.04C215.037 28.04 215.677 28.2133 216.077 28.56C216.477 28.9067 216.677 29.4667 216.677 30.24C216.677 32 216.117 33.4133 214.997 34.48C213.877 35.5467 212.464 36.08 210.757 36.08C208.437 36.08 206.744 35.1467 205.677 33.28C204.611 31.3867 204.077 28.4 204.077 24.32C204.077 23.0933 204.091 22.2 204.117 21.64C203.931 21.6133 203.624 21.6 203.197 21.6C201.677 21.5733 200.917 20.84 200.917 19.4C200.917 18.6533 201.104 18.0933 201.477 17.72C201.877 17.3467 202.571 17.1733 203.557 17.2L204.437 17.24C204.624 15.5867 204.931 13.56 205.357 11.16C205.464 10.52 205.757 10.04 206.237 9.72C206.744 9.37333 207.384 9.2 208.157 9.2C209.064 9.2 209.771 9.41333 210.277 9.84C210.784 10.2667 211.037 10.7867 211.037 11.4L210.997 11.72L210.797 13C210.477 15.1867 210.264 16.68 210.157 17.48C211.064 17.5333 211.757 17.56 212.237 17.56C213.597 17.5867 214.277 18.2933 214.277 19.68C214.277 20.3733 214.091 20.8933 213.717 21.24C213.344 21.5867 212.717 21.76 211.837 21.76H209.837C209.811 22.2933 209.797 23.1467 209.797 24.32C209.797 26.2933 209.837 27.8133 209.917 28.88C210.024 29.92 210.171 30.6267 210.357 31C210.544 31.3733 210.784 31.56 211.077 31.56C211.451 31.56 211.691 31.44 211.797 31.2C211.904 30.96 211.957 30.5333 211.957 29.92C211.957 28.6667 212.691 28.04 214.157 28.04Z" fill="#282828"/>
</g>
<g filter="url(#filter3_d_1864_9567)">
<path d="M161.129 23.8896C161.129 23.8896 162.438 25.4462 163.629 25.8828C165.67 26.6312 166.629 23.8896 166.629 23.8896" stroke="#282828" stroke-width="2" stroke-linecap="round"/>
<path d="M161.129 23.9978C161.129 23.9978 160.198 25.4597 159.129 25.9978C157.296 26.9201 156.129 24.4978 156.129 24.4978" stroke="#282828" stroke-width="2" stroke-linecap="round"/>
<path d="M162.58 20.6867L161.037 22.9502L159.462 20.7078L162.58 20.6867Z" fill="#FF8282" stroke="#282828" stroke-width="2"/>
</g>
<defs>
<filter id="filter0_d_1864_9567" x="148.312" y="7.42896" width="8.13269" height="8.05823" filterUnits="userSpaceOnUse" color-interpolation-filters="sRGB">
<feFlood flood-opacity="0" result="BackgroundImageFix"/>
<feColorMatrix in="SourceAlpha" type="matrix" values="0 0 0 0 0 0 0 0 0 0 0 0 0 0 0 0 0 0 127 0" result="hardAlpha"/>
<feOffset dx="1" dy="1"/>
<feComposite in2="hardAlpha" operator="out"/>
<feColorMatrix type="matrix" values="0 0 0 0 1 0 0 0 0 0.870588 0 0 0 0 0.34902 0 0 0 1 0"/>
<feBlend mode="normal" in2="BackgroundImageFix" result="effect1_dropShadow_1864_9567"/>
<feBlend mode="normal" in="SourceGraphic" in2="effect1_dropShadow_1864_9567" result="shape"/>
</filter>
<filter id="filter1_d_1864_9567" x="159.6" y="2.48474" width="8.68293" height="7.1814" filterUnits="userSpaceOnUse" color-interpolation-filters="sRGB">
<feFlood flood-opacity="0" result="BackgroundImageFix"/>
<feColorMatrix in="SourceAlpha" type="matrix" values="0 0 0 0 0 0 0 0 0 0 0 0 0 0 0 0 0 0 127 0" result="hardAlpha"/>
<feOffset dx="1.8" dy="0.5"/>
<feComposite in2="hardAlpha" operator="out"/>
<feColorMatrix type="matrix" values="0 0 0 0 1 0 0 0 0 0.941176 0 0 0 0 0.705882 0 0 0 1 0"/>
<feBlend mode="normal" in2="BackgroundImageFix" result="effect1_dropShadow_1864_9567"/>
<feBlend mode="normal" in="SourceGraphic" in2="effect1_dropShadow_1864_9567" result="shape"/>
</filter>
<filter id="filter2_d_1864_9567" x="1.88" y="7.43994" width="217.297" height="41.32" filterUnits="userSpaceOnUse" color-interpolation-filters="sRGB">
<feFlood flood-opacity="0" result="BackgroundImageFix"/>
<feColorMatrix in="SourceAlpha" type="matrix" values="0 0 0 0 0 0 0 0 0 0 0 0 0 0 0 0 0 0 127 0" result="hardAlpha"/>
<feOffset dx="2.5" dy="3.8"/>
<feComposite in2="hardAlpha" operator="out"/>
<feColorMatrix type="matrix" values="0 0 0 0 1 0 0 0 0 0.94119 0 0 0 0 0.704167 0 0 0 1 0"/>
<feBlend mode="normal" in2="BackgroundImageFix" result="effect1_dropShadow_1864_9567"/>
<feBlend mode="normal" in="SourceGraphic" in2="effect1_dropShadow_1864_9567" result="shape"/>
</filter>
<filter id="filter3_d_1864_9567" x="155.129" y="19.6841" width="13.5005" height="8.52319" filterUnits="userSpaceOnUse" color-interpolation-filters="sRGB">
<feFlood flood-opacity="0" result="BackgroundImageFix"/>
<feColorMatrix in="SourceAlpha" type="matrix" values="0 0 0 0 0 0 0 0 0 0 0 0 0 0 0 0 0 0 127 0" result="hardAlpha"/>
<feOffset dx="1" dy="1"/>
<feComposite in2="hardAlpha" operator="out"/>
<feColorMatrix type="matrix" values="0 0 0 0 1 0 0 0 0 0.941176 0 0 0 0 0.705882 0 0 0 1 0"/>
<feBlend mode="normal" in2="BackgroundImageFix" result="effect1_dropShadow_1864_9567"/>
<feBlend mode="normal" in="SourceGraphic" in2="effect1_dropShadow_1864_9567" result="shape"/>
</filter>
</defs>
</svg>
