<svg width="82" height="50" viewBox="0 0 82 50" fill="none" xmlns="http://www.w3.org/2000/svg">
<path d="M81.7773 13.513C80.9522 13.9353 80.1272 14.3575 79.3021 14.7797L77.6519 15.6242C77.4166 15.7445 77.2989 15.8047 77.0621 15.9261C76.237 16.3483 75.4119 16.7705 74.7045 17.1315L72.466 18.2779C71.6409 18.7001 70.9335 19.0622 70.1084 19.4844L67.8684 20.6308C67.0433 21.053 66.3359 21.414 65.5108 21.8362L65.1578 22.0178C64.6857 22.2585 64.2151 22.5002 63.8607 22.6807L63.2709 22.9826C62.4458 23.4048 61.6207 23.827 60.9147 24.1891L60.5603 24.3696C60.0896 24.6114 59.6175 24.852 59.2645 25.0336C59.0278 25.1539 58.7924 25.2742 58.6748 25.3355C57.8497 25.7577 57.1423 26.1187 56.4348 26.4808C56.3172 26.5409 56.1995 26.6022 56.1995 26.6022C55.7274 26.8428 55.2567 27.0846 54.9023 27.2651C54.667 27.3854 54.5493 27.4456 54.3125 27.5669C53.9595 27.7474 53.4874 27.9892 53.1345 28.1697C52.7815 28.3513 52.3094 28.5919 51.9564 28.7735C51.8372 28.8336 51.7196 28.8938 51.6019 28.954C51.1313 29.1957 50.7768 29.3762 50.3062 29.6179C50.0694 29.7383 49.9517 29.7984 49.7164 29.9188C48.8913 30.341 48.1839 30.7031 47.3588 31.1253C47.2411 31.1855 47.1235 31.2456 47.0044 31.3058C46.5337 31.5475 46.1793 31.728 45.7086 31.9697C45.4733 32.0901 45.3542 32.1502 45.1189 32.2716C44.2938 32.6939 43.5863 33.0559 42.7613 33.4771L42.4083 33.6587C41.9362 33.8993 41.5832 34.0809 41.1111 34.3215C40.8757 34.443 40.7581 34.5031 40.5228 34.6235C39.6977 35.0457 38.9902 35.4078 38.1651 35.83L36.515 36.6744C36.2782 36.7948 36.1605 36.8549 35.9252 36.9763L33.2146 38.3634C32.7425 38.604 32.2704 38.8457 31.9174 39.0262L31.0923 39.4485C30.2672 39.8707 29.5598 40.2328 28.7347 40.655L28.3817 40.8366C28.1449 40.9569 27.9096 41.0772 27.6743 41.1976C27.4389 41.319 27.3198 41.3791 27.0845 41.4995C26.8492 41.6198 26.7315 41.681 26.4947 41.8014C25.6696 42.2236 24.8445 42.6458 24.1371 43.0079C24.0194 43.068 23.9018 43.1282 23.7841 43.1884C23.312 43.4301 22.8414 43.6708 22.4869 43.8523C22.2516 43.9727 22.1339 44.0328 21.8986 44.1532C21.0735 44.5754 20.2484 44.9976 19.6231 45.4474L19.2687 45.6278C18.7981 45.8696 18.3259 46.1102 17.973 46.2918C17.7362 46.4121 17.6185 46.4723 17.3832 46.5937C16.4404 47.0761 15.8151 47.5248 15.1077 47.8868C14.9901 47.947 14.8724 48.0072 14.7533 48.0684L14.6356 48.1286C14.2826 48.3091 13.8105 48.5508 13.4575 48.7313C13.2222 48.8516 13.1031 48.9118 12.8678 49.0332C12.6324 49.1535 12.3971 49.2739 12.1603 49.3953C12.1603 49.3953 12.278 49.334 12.4326 49.126C12.668 49.0057 12.7035 48.8579 12.776 48.5622C12.8019 48.0321 12.275 47.6551 12.275 47.6551C11.9931 47.541 11.7112 47.4269 11.5824 47.1037C11.4551 46.7817 11.8081 46.6001 11.6808 46.278C11.5521 45.9559 11.0718 45.8144 10.4724 45.733C9.87305 45.6515 9.07386 45.5437 8.863 45.1329C8.65358 44.7231 9.07907 44.247 9.46904 43.9187C9.46904 43.9187 9.46904 43.9187 9.5867 43.8585C9.97668 43.5291 10.2379 42.8776 9.67404 42.6495C9.39212 42.5343 9.07465 42.5681 8.79271 42.454C8.42866 42.2511 8.41903 41.8689 8.29176 41.5458C8.03572 40.9016 6.87247 40.5909 5.92009 40.6911C5.80097 40.7513 5.60118 40.7238 5.40138 40.6973C5.20158 40.6698 5.20158 40.6698 5.00179 40.6423C4.80199 40.6159 4.52153 40.5008 4.55705 40.3529C4.47491 40.2664 4.51044 40.1185 4.6281 40.0584C4.6281 40.0584 4.74722 39.9982 4.66509 39.9105C4.73614 39.6149 4.89079 39.4069 4.96185 39.1112L4.99883 38.9634C5.03436 38.8156 5.15202 38.7554 5.06988 38.6688C5.02473 38.4334 4.74281 38.3182 4.46087 38.2041C4.37874 38.1164 4.26107 38.1777 4.06128 38.1502C3.86149 38.1227 3.74383 38.1828 3.54402 38.1564C3.34423 38.1289 3.02531 38.1627 2.74484 38.0475C2.46291 37.9334 2.25203 37.5237 2.48881 37.4034C2.37115 37.4635 2.17136 37.436 1.97156 37.4085C1.65264 37.4423 1.37216 37.3282 0.97258 37.2732C0.690643 37.1591 0.408707 37.045 0.162312 36.782C0.279972 36.7219 0.397631 36.6617 0.516752 36.6015L0.634411 36.5414C0.86973 36.421 0.987404 36.3598 1.22272 36.2395C1.57716 36.059 1.93016 35.8774 2.2846 35.6969C2.40226 35.6368 2.51991 35.5766 2.63759 35.5153C3.22735 35.2145 3.93478 34.8525 4.56008 34.4027C4.7954 34.2824 4.91306 34.2222 5.14984 34.1019C5.62049 33.8602 6.21026 33.5583 6.80002 33.2575C6.91768 33.1973 7.03536 33.136 7.03536 33.136C7.74278 32.7751 8.45021 32.413 9.07551 31.9633C9.31083 31.8429 9.42849 31.7828 9.66382 31.6613C10.2536 31.3605 10.7257 31.1188 11.314 30.8169C11.4317 30.7567 11.5508 30.6966 11.6684 30.6364C12.3759 30.2743 13.0833 29.9123 13.7893 29.5502C14.0261 29.4299 14.1437 29.3697 14.379 29.2494C14.9688 28.9475 15.4395 28.7068 16.0292 28.4049L16.3837 28.2234C16.7367 28.0429 17.0896 27.8624 17.4441 27.6808L18.3868 27.1984C18.6222 27.0781 18.7398 27.0179 18.9766 26.8965C19.5649 26.5957 20.037 26.3539 20.6268 26.052L20.9798 25.8715C21.6872 25.5095 22.3946 25.1474 23.1021 24.7854L23.6918 24.4845C24.2801 24.1826 24.7523 23.9409 25.342 23.6401C25.4597 23.5799 25.5774 23.5187 25.5774 23.5187C26.2848 23.1577 26.9922 22.7956 27.6982 22.4335C27.935 22.3132 28.0526 22.2531 28.2879 22.1316C28.8777 21.8308 29.3484 21.5891 29.9381 21.2872C30.0558 21.227 30.1735 21.1668 30.1735 21.1668C30.8809 20.8048 31.5883 20.4427 32.1781 20.1419C32.4134 20.0205 32.5311 19.9603 32.7678 19.84C33.3562 19.5381 33.8283 19.2974 34.3004 19.0557C34.418 18.9955 34.5357 18.9354 34.5357 18.9354C35.2431 18.5733 35.8314 18.2714 36.5389 17.9093C36.7757 17.789 36.8933 17.7289 37.1286 17.6085C37.7184 17.3066 38.1891 17.0649 38.7788 16.7641C38.8965 16.7039 38.8965 16.7039 39.0141 16.6426C39.4862 16.402 39.9569 16.1603 40.5467 15.8594C40.782 15.738 40.9011 15.6779 41.1364 15.5575C41.3717 15.4372 41.4894 15.377 41.7262 15.2556C42.1968 15.015 42.7866 14.7131 43.3764 14.4112L43.9647 14.1104C44.6721 13.7483 45.2619 13.4464 45.9693 13.0843L46.5591 12.7835C47.1474 12.4816 47.6195 12.2399 48.2093 11.9391C48.3269 11.8778 48.4446 11.8176 48.4446 11.8176C49.152 11.4556 49.7403 11.1547 50.4478 10.7927L51.0375 10.4908C51.6273 10.1889 52.0979 9.94822 52.6877 9.64632L55.7528 8.07881C56.3425 7.77692 56.8132 7.53517 57.4029 7.23435L57.7559 7.05277C58.4634 6.69071 59.1708 6.32973 59.7606 6.02783C59.9959 5.9075 60.1135 5.84625 60.3489 5.72591C60.821 5.48527 61.4107 5.18337 61.999 4.88145L62.3535 4.70097C63.0609 4.33891 63.7684 3.97685 64.4743 3.61476L65.0641 3.31287C65.6539 3.01205 66.126 2.77032 66.7143 2.46949L66.9511 2.34809L67.304 2.16759C67.8938 1.86569 68.4821 1.56378 69.0719 1.26296C69.3072 1.14155 69.4263 1.0814 69.6617 0.961068L69.7793 0.900901C70.153 1.48597 70.0916 2.16386 69.6661 2.64001C70.0191 2.45951 70.4653 2.74893 70.3927 3.04349C70.4394 3.27899 70.2847 3.48697 70.1315 3.69497L70.096 3.84281C70.0235 4.13845 70.0331 4.52069 70.315 4.63585C70.3972 4.72244 70.5148 4.66227 70.597 4.74994C70.597 4.74994 70.597 4.74994 70.7968 4.77744C71.314 4.77119 71.7136 4.8251 72.2309 4.81886L72.35 4.75871C72.5498 4.78513 72.6675 4.72496 72.7496 4.81263C73.1122 5.01436 72.9235 5.37019 72.6156 5.78617L72.498 5.84634C72.0355 6.4703 71.9385 7.29711 72.7473 7.78826C73.1114 7.99001 73.5931 8.1316 73.7204 8.45366C73.767 8.68916 73.6124 8.89714 73.659 9.13264L73.7411 9.21923L73.8232 9.30689C73.986 9.48221 74.3856 9.53612 74.5855 9.56254C74.7852 9.59004 75.1042 9.55631 75.2218 9.49614C75.5393 9.46348 75.7746 9.34314 76.0921 9.30939C76.2097 9.24923 76.4095 9.27565 76.4095 9.27565C76.6093 9.30315 76.8091 9.33065 77.091 9.44473C77.6194 9.82181 77.3567 10.4722 77.3308 11.0033C77.2597 11.299 77.387 11.6211 77.669 11.7352C77.9509 11.8503 78.1862 11.7289 78.7501 11.9582C79.1141 12.1599 79.2414 12.4831 79.2059 12.6309C79.288 12.7175 79.4974 13.1283 80.179 13.2963C81.1876 13.8149 81.7773 13.513 81.7773 13.513Z" fill="#FEE16D"/>
</svg>
